<?xml version="1.0" encoding="utf-8"?>
<!-- Generator: Adobe Illustrator 23.0.3, SVG Export Plug-In . SVG Version: 6.00 Build 0)  -->
<!DOCTYPE svg PUBLIC "-//W3C//DTD SVG 1.1//EN" "http://www.w3.org/Graphics/SVG/1.1/DTD/svg11.dtd" [
	<!ENTITY ns_flows "http://ns.adobe.com/Flows/1.0/">
	<!ENTITY ns_extend "http://ns.adobe.com/Extensibility/1.0/">
	<!ENTITY ns_ai "http://ns.adobe.com/AdobeIllustrator/10.0/">
	<!ENTITY ns_graphs "http://ns.adobe.com/Graphs/1.0/">
	<!ENTITY ns_vars "http://ns.adobe.com/Variables/1.0/">
	<!ENTITY ns_imrep "http://ns.adobe.com/ImageReplacement/1.0/">
	<!ENTITY ns_sfw "http://ns.adobe.com/SaveForWeb/1.0/">
	<!ENTITY ns_custom "http://ns.adobe.com/GenericCustomNamespace/1.0/">
	<!ENTITY ns_adobe_xpath "http://ns.adobe.com/XPath/1.0/">
]>
<svg version="1.1" xmlns:x="&ns_extend;" xmlns:i="&ns_ai;" xmlns:graph="&ns_graphs;"
	 xmlns="http://www.w3.org/2000/svg" xmlns:xlink="http://www.w3.org/1999/xlink" xmlns:a="http://ns.adobe.com/AdobeSVGViewerExtensions/3.0/"
	 x="0px" y="0px" viewBox="0 0 1000 650" enable-background="new 0 0 1000 650" xml:space="preserve">
<metadata>
	<sfw  xmlns="&ns_sfw;">
		<slices></slices>
		<sliceSourceBounds  bottomLeftOrigin="true" height="15436" width="7503.292" x="-4865.292" y="-7686"></sliceSourceBounds>
	</sfw>
</metadata>
<g id="FILL-BACKGROUND">
	<rect fill="#FFFFFF" width="1000" height="650"/>
</g>
<g id="N-DIMENSIONS">
	<g>
		<g>
			<g id="POLYLINE_447_">
				
					<line fill="none" stroke="#005476" stroke-width="2" stroke-linecap="round" stroke-linejoin="round" stroke-miterlimit="10" x1="582.398" y1="489.501" x2="582.381" y2="459.757"/>
			</g>
			<g id="POLYLINE_434_">
				
					<line fill="none" stroke="#005476" stroke-width="2" stroke-linecap="round" stroke-linejoin="round" stroke-miterlimit="10" x1="582.433" y1="581.012" x2="582.417" y2="534.006"/>
			</g>
			<g id="POLYLINE_433_">
				
					<polyline fill="none" stroke="#005476" stroke-width="2" stroke-linecap="round" stroke-linejoin="round" stroke-miterlimit="10" points="
					589.575,466.946 582.381,459.757 575.192,466.952 				"/>
			</g>
			<g id="POLYLINE_432_">
				
					<polyline fill="none" stroke="#005476" stroke-width="2" stroke-linecap="round" stroke-linejoin="round" stroke-miterlimit="10" points="
					589.621,573.807 582.433,581.012 575.238,573.813 				"/>
			</g>
			<g id="MTEXT_44_">
				<g>
					<g>
						<g>
							<path fill="#005476" d="M558.893,509.769c-0.066-0.078-0.1-0.171-0.1-0.279l0.036-0.161l4.495-10.532l-5.94,0.003
								c-0.12,0-0.219-0.039-0.297-0.117s-0.116-0.177-0.116-0.297v-0.666c0-0.132,0.035-0.237,0.107-0.315
								c0.072-0.077,0.174-0.116,0.306-0.116l7.345-0.003c0.132,0,0.233,0.039,0.306,0.116c0.072,0.078,0.108,0.184,0.108,0.315
								v0.612c0,0.216-0.049,0.449-0.145,0.702l-4.441,10.405c-0.06,0.133-0.126,0.24-0.197,0.324
								c-0.072,0.084-0.175,0.126-0.307,0.126h-0.899C559.045,509.886,558.958,509.847,558.893,509.769z"/>
							<path fill="#005476" d="M574.74,509.763c-0.071-0.078-0.107-0.177-0.107-0.297l-0.005-10.152l-3.023,2.323
								c-0.084,0.072-0.173,0.108-0.269,0.108c-0.108,0-0.211-0.061-0.308-0.181l-0.432-0.558c-0.061-0.084-0.09-0.168-0.09-0.252
								c0-0.132,0.06-0.24,0.18-0.324l3.905-3.024c0.132-0.084,0.288-0.126,0.468-0.127h0.846c0.12,0,0.219,0.039,0.297,0.116
								c0.078,0.078,0.117,0.178,0.117,0.298l0.005,11.771c0,0.12-0.039,0.219-0.117,0.297s-0.177,0.117-0.297,0.117h-0.882
								C574.908,509.88,574.812,509.841,574.74,509.763z"/>
							<path fill="#005476" d="M578.287,511.282c-0.073-0.072-0.109-0.156-0.109-0.252c0-0.049,0.019-0.12,0.055-0.217l6.149-14.779
								c0.108-0.205,0.264-0.308,0.468-0.308h0.666c0.097,0,0.181,0.036,0.252,0.108c0.072,0.072,0.108,0.156,0.108,0.252
								c0,0.048-0.018,0.12-0.054,0.216l-6.168,14.781c-0.024,0.072-0.075,0.141-0.152,0.207c-0.078,0.065-0.184,0.099-0.315,0.099
								h-0.647C578.442,511.39,578.359,511.354,578.287,511.282z"/>
							<path fill="#005476" d="M589.257,509.595c-0.714-0.306-1.27-0.747-1.666-1.322c-0.396-0.576-0.594-1.248-0.595-2.017
								c0-0.708,0.177-1.329,0.531-1.863c0.353-0.533,0.83-0.944,1.43-1.232c-0.479-0.276-0.852-0.639-1.116-1.089
								s-0.396-0.981-0.396-1.594c0-1.044,0.389-1.868,1.169-2.475s1.806-0.91,3.078-0.911c1.271,0,2.295,0.301,3.069,0.899
								c0.773,0.6,1.161,1.428,1.161,2.483c0,0.601-0.132,1.125-0.395,1.575c-0.265,0.45-0.63,0.819-1.098,1.107
								c0.6,0.288,1.076,0.699,1.432,1.232c0.354,0.534,0.531,1.161,0.531,1.882c0.001,0.768-0.197,1.437-0.594,2.007
								c-0.396,0.57-0.95,1.008-1.664,1.313c-0.714,0.308-1.526,0.46-2.438,0.46C590.784,510.053,589.971,509.9,589.257,509.595z
								 M593.828,508c0.57-0.433,0.855-1.009,0.854-1.729c0-0.721-0.285-1.297-0.855-1.728c-0.57-0.432-1.282-0.647-2.134-0.647
								c-0.864,0.001-1.58,0.217-2.15,0.648c-0.569,0.433-0.854,1.009-0.854,1.729c0.001,0.72,0.286,1.296,0.855,1.727
								c0.57,0.432,1.287,0.648,2.151,0.647C592.547,508.648,593.258,508.432,593.828,508z M593.547,501.952
								c0.503-0.361,0.755-0.841,0.755-1.441c0-0.611-0.249-1.101-0.747-1.466c-0.498-0.366-1.119-0.549-1.863-0.549
								c-0.756,0.001-1.38,0.184-1.872,0.55c-0.491,0.366-0.737,0.856-0.737,1.468c0,0.612,0.246,1.101,0.739,1.467
								c0.492,0.366,1.116,0.549,1.872,0.548C592.425,502.504,593.043,502.312,593.547,501.952z"/>
							<path fill="#005476" d="M598.729,500.636l-0.307-3.132v-0.072c0-0.107,0.032-0.191,0.099-0.252
								c0.065-0.06,0.153-0.09,0.261-0.09l1.134-0.001c0.12,0,0.213,0.039,0.279,0.117s0.093,0.178,0.081,0.297l-0.305,3.132
								c-0.024,0.265-0.145,0.396-0.36,0.396h-0.521C598.873,501.031,598.753,500.9,598.729,500.636z M601.483,500.634l-0.307-3.131
								v-0.036c0-0.119,0.032-0.214,0.099-0.279c0.065-0.066,0.153-0.1,0.261-0.1h1.135c0.119,0,0.213,0.039,0.278,0.117
								c0.066,0.078,0.093,0.178,0.081,0.297l-0.305,3.132c-0.024,0.265-0.145,0.396-0.36,0.396h-0.521
								C601.627,501.03,601.508,500.898,601.483,500.634z"/>
							<path fill="#005476" d="M560.258,527.368c-0.071-0.078-0.107-0.177-0.107-0.297l-0.004-10.152l-3.023,2.323
								c-0.084,0.072-0.174,0.108-0.27,0.108c-0.108,0-0.21-0.061-0.307-0.181l-0.432-0.558c-0.061-0.084-0.091-0.168-0.091-0.252
								c0-0.132,0.06-0.24,0.18-0.324l3.905-3.024c0.132-0.084,0.288-0.126,0.468-0.126l0.846-0.001c0.12,0,0.219,0.039,0.297,0.116
								c0.078,0.078,0.117,0.178,0.117,0.298l0.005,11.771c0,0.12-0.039,0.219-0.117,0.297s-0.177,0.117-0.297,0.117l-0.882,0.001
								C560.426,527.485,560.33,527.446,560.258,527.368z"/>
							<path fill="#005476" d="M566.494,527.203c-0.714-0.306-1.269-0.746-1.665-1.321c-0.396-0.576-0.595-1.248-0.595-2.017
								c-0.001-0.708,0.176-1.329,0.53-1.863c0.354-0.533,0.831-0.945,1.43-1.233c-0.479-0.276-0.852-0.638-1.116-1.088
								c-0.264-0.45-0.396-0.981-0.396-1.594c0-1.044,0.39-1.868,1.169-2.476c0.78-0.605,1.806-0.909,3.078-0.91
								c1.271-0.001,2.295,0.3,3.069,0.899c0.774,0.599,1.161,1.427,1.161,2.482c0.001,0.601-0.131,1.125-0.395,1.575
								c-0.265,0.451-0.63,0.82-1.098,1.108c0.601,0.288,1.077,0.698,1.432,1.231c0.354,0.534,0.531,1.161,0.532,1.882
								c0,0.768-0.198,1.437-0.594,2.007s-0.951,1.009-1.665,1.314c-0.714,0.307-1.526,0.46-2.438,0.46
								S567.208,527.51,566.494,527.203z M571.066,525.608c0.569-0.432,0.854-1.008,0.854-1.728
								c-0.001-0.721-0.286-1.297-0.856-1.729s-1.281-0.646-2.133-0.646c-0.864,0-1.581,0.217-2.151,0.648
								c-0.569,0.432-0.854,1.008-0.854,1.729c0,0.72,0.285,1.296,0.855,1.728s1.287,0.647,2.151,0.647
								C569.785,526.258,570.496,526.04,571.066,525.608z M570.784,519.561c0.504-0.36,0.756-0.84,0.755-1.44
								c0-0.611-0.249-1.101-0.746-1.467c-0.498-0.366-1.119-0.548-1.863-0.548c-0.756,0-1.38,0.184-1.872,0.55
								s-0.738,0.855-0.738,1.467c0.001,0.612,0.247,1.102,0.739,1.468s1.116,0.548,1.872,0.548
								C569.662,520.113,570.28,519.921,570.784,519.561z"/>
							<path fill="#005476" d="M581.155,526.567c-0.72-0.726-1.099-1.743-1.135-3.051l-0.02-0.72l0.019-0.721
								c0.035-1.308,0.413-2.324,1.133-3.051c0.719-0.726,1.721-1.09,3.005-1.09c0.864-0.001,1.593,0.152,2.188,0.458
								c0.595,0.305,1.038,0.687,1.333,1.142c0.294,0.457,0.452,0.912,0.478,1.368c0.012,0.108-0.027,0.204-0.117,0.288
								s-0.188,0.126-0.297,0.126h-0.792c-0.12,0.001-0.21-0.025-0.27-0.08c-0.061-0.054-0.12-0.152-0.181-0.297
								c-0.217-0.588-0.514-1.005-0.892-1.251s-0.855-0.369-1.431-0.368c-0.757,0-1.356,0.234-1.801,0.702
								c-0.443,0.469-0.683,1.184-0.719,2.144l-0.018,0.63l0.019,0.63c0.036,0.96,0.276,1.674,0.72,2.141
								c0.445,0.468,1.045,0.702,1.802,0.702c0.588-0.001,1.067-0.124,1.439-0.37s0.665-0.663,0.881-1.251
								c0.061-0.144,0.12-0.243,0.181-0.297c0.06-0.054,0.149-0.081,0.27-0.082h0.792c0.108,0,0.207,0.042,0.297,0.126
								s0.129,0.18,0.117,0.288c-0.024,0.444-0.183,0.895-0.476,1.35c-0.295,0.457-0.738,0.841-1.332,1.153
								c-0.595,0.312-1.323,0.468-2.188,0.469C582.877,527.655,581.875,527.294,581.155,526.567z"/>
							<path fill="#005476" d="M590.434,527.355c-0.078-0.078-0.117-0.177-0.117-0.297l-0.003-8.532
								c-0.001-0.119,0.038-0.219,0.116-0.297s0.177-0.117,0.297-0.117h0.756c0.12,0,0.217,0.038,0.288,0.116
								c0.072,0.078,0.108,0.178,0.109,0.297v0.612c0.646-0.804,1.522-1.206,2.627-1.207c1.32,0,2.257,0.551,2.809,1.655
								c0.288-0.504,0.699-0.906,1.232-1.206c0.534-0.301,1.131-0.451,1.791-0.451c0.983-0.001,1.788,0.335,2.413,1.007
								c0.624,0.673,0.936,1.644,0.937,2.915l0.002,5.202c0,0.12-0.039,0.219-0.117,0.298c-0.078,0.078-0.177,0.117-0.297,0.117
								h-0.773c-0.12,0-0.22-0.039-0.297-0.117c-0.078-0.078-0.117-0.177-0.117-0.297l-0.002-5.04c0-0.96-0.199-1.646-0.595-2.061
								c-0.396-0.413-0.918-0.62-1.566-0.62c-0.576,0-1.071,0.213-1.485,0.64c-0.414,0.426-0.62,1.107-0.62,2.043l0.002,5.04
								c0,0.12-0.039,0.219-0.116,0.297c-0.078,0.078-0.178,0.117-0.297,0.117h-0.792c-0.12,0-0.22-0.038-0.298-0.116
								s-0.116-0.177-0.116-0.297l-0.002-5.04c0-0.947-0.208-1.632-0.622-2.052s-0.928-0.63-1.539-0.63
								c-0.576,0.001-1.071,0.211-1.485,0.631s-0.62,1.098-0.62,2.034l0.002,5.058c0,0.12-0.039,0.219-0.117,0.297
								s-0.177,0.118-0.297,0.118h-0.792C590.61,527.473,590.512,527.434,590.434,527.355z"/>
						</g>
					</g>
				</g>
			</g>
		</g>
		<g>
			<g>
				
					<line fill="none" stroke="#005476" stroke-width="2.25" stroke-linecap="round" stroke-linejoin="round" x1="519" y1="587" x2="520.5" y2="587"/>
				
					<line fill="none" stroke="#005476" stroke-width="2.25" stroke-linecap="round" stroke-linejoin="round" stroke-dasharray="2.9268,5.8537" x1="526.354" y1="586.999" x2="637.573" y2="586.976"/>
				
					<line fill="none" stroke="#005476" stroke-width="2.25" stroke-linecap="round" stroke-linejoin="round" x1="640.5" y1="586.975" x2="642" y2="586.975"/>
			</g>
		</g>
	</g>
	<g id="MTEXT_74_">
		<g>
			<g>
				<g>
					<path fill="#005476" d="M772.427,429.802c-0.402,0.664-0.994,1.194-1.774,1.591c-0.781,0.396-1.729,0.59-2.843,0.58
						c-1.101-0.01-2.082-0.205-2.943-0.587c-0.862-0.382-1.551-0.927-2.065-1.636c-0.514-0.708-0.805-1.531-0.869-2.472l3.3,0.029
						c0.068,0.631,0.316,1.158,0.745,1.58c0.429,0.421,1.003,0.636,1.722,0.642c0.646,0.006,1.142-0.162,1.489-0.504
						s0.524-0.783,0.529-1.326c0.004-0.484-0.132-0.885-0.408-1.203c-0.275-0.317-0.626-0.573-1.049-0.768
						c-0.424-0.194-1.009-0.42-1.754-0.676c-0.966-0.331-1.755-0.657-2.368-0.978c-0.613-0.321-1.134-0.784-1.561-1.389
						c-0.428-0.605-0.638-1.391-0.629-2.359c0.012-1.334,0.501-2.383,1.469-3.144c0.967-0.763,2.243-1.136,3.827-1.122
						c1.643,0.015,2.948,0.421,3.917,1.222c0.968,0.801,1.513,1.862,1.633,3.183l-3.344-0.029c-0.083-0.558-0.314-1.018-0.691-1.381
						c-0.379-0.362-0.898-0.546-1.558-0.552c-0.572-0.005-1.036,0.141-1.391,0.438c-0.354,0.298-0.534,0.733-0.539,1.306
						c-0.004,0.454,0.128,0.833,0.396,1.136c0.27,0.304,0.612,0.552,1.028,0.745c0.416,0.194,0.982,0.412,1.699,0.653
						c0.994,0.36,1.801,0.697,2.423,1.011c0.62,0.313,1.147,0.78,1.582,1.4s0.647,1.429,0.639,2.426
						C773.032,428.41,772.827,429.138,772.427,429.802z"/>
					<path fill="#005476" d="M775.613,414.979c0.354-0.312,0.818-0.466,1.391-0.461c0.571,0.005,1.032,0.166,1.382,0.485
						c0.349,0.318,0.521,0.727,0.517,1.226c-0.004,0.483-0.184,0.883-0.538,1.194s-0.818,0.466-1.39,0.461
						c-0.572-0.005-1.033-0.167-1.383-0.485c-0.349-0.317-0.521-0.72-0.517-1.203C775.079,415.697,775.259,415.292,775.613,414.979z
						 M778.498,419.724l-0.106,12.188l-3.102-0.027l0.106-12.188L778.498,419.724z"/>
					<path fill="#005476" d="M788.712,420.386c0.722,0.49,1.24,1.147,1.556,1.971l0.058-6.621l3.079,0.026l-0.142,16.279
						l-3.079-0.026l0.021-2.552c-0.329,0.818-0.859,1.47-1.59,1.955c-0.73,0.484-1.609,0.723-2.636,0.714s-1.948-0.267-2.765-0.772
						c-0.817-0.506-1.452-1.234-1.906-2.184c-0.453-0.95-0.675-2.063-0.664-3.339c0.012-1.276,0.253-2.386,0.723-3.327
						c0.471-0.941,1.118-1.658,1.943-2.149c0.826-0.491,1.752-0.732,2.778-0.724S787.99,419.896,788.712,420.386z M784.693,423.275
						c-0.592,0.625-0.893,1.488-0.902,2.589c-0.01,1.1,0.276,1.964,0.857,2.593c0.58,0.628,1.355,0.946,2.324,0.955
						c0.938,0.008,1.714-0.304,2.328-0.938c0.614-0.632,0.927-1.483,0.936-2.554c0.01-1.086-0.287-1.95-0.891-2.594
						c-0.603-0.644-1.373-0.969-2.312-0.977C786.065,422.342,785.285,422.65,784.693,423.275z"/>
					<path fill="#005476" d="M807.479,426.665l-8.932-0.078c0.034,1.087,0.32,1.888,0.858,2.406c0.538,0.518,1.21,0.78,2.018,0.787
						c0.718,0.007,1.317-0.164,1.798-0.513c0.479-0.348,0.788-0.821,0.926-1.422l3.277,0.029c-0.169,0.849-0.52,1.608-1.054,2.279
						c-0.534,0.67-1.217,1.192-2.049,1.565c-0.832,0.375-1.754,0.558-2.767,0.549c-1.188-0.011-2.242-0.273-3.161-0.788
						c-0.919-0.514-1.632-1.242-2.138-2.186c-0.504-0.942-0.751-2.053-0.74-3.328c0.012-1.276,0.278-2.386,0.799-3.326
						c0.522-0.941,1.247-1.657,2.175-2.147c0.929-0.491,1.987-0.73,3.175-0.72c1.203,0.01,2.253,0.269,3.15,0.775
						c0.898,0.506,1.589,1.198,2.072,2.074c0.483,0.877,0.721,1.872,0.711,2.987C807.596,425.918,807.555,426.27,807.479,426.665z
						 M803.715,423.002c-0.56-0.519-1.251-0.781-2.072-0.788c-0.836-0.008-1.542,0.243-2.118,0.752
						c-0.576,0.508-0.898,1.261-0.966,2.257l5.918,0.052C804.529,424.278,804.275,423.521,803.715,423.002z"/>
				</g>
			</g>
		</g>
	</g>
	<g>
		<g id="POLYLINE_983_">
			
				<line fill="none" stroke="#005476" stroke-width="2" stroke-linecap="round" stroke-linejoin="round" stroke-miterlimit="10" x1="474" y1="411.38" x2="544.036" y2="411.38"/>
		</g>
		<g id="POLYLINE_982_">
			
				<line fill="none" stroke="#005476" stroke-width="2" stroke-linecap="round" stroke-linejoin="round" stroke-miterlimit="10" x1="51.78" y1="411.38" x2="339" y2="411.38"/>
		</g>
		<g id="POLYLINE_981_">
			
				<polyline fill="none" stroke="#005476" stroke-width="2" stroke-linecap="round" stroke-linejoin="round" stroke-miterlimit="10" points="
				536.844,418.57 544.036,411.38 536.844,404.188 			"/>
		</g>
		<g id="POLYLINE_980_">
			
				<polyline fill="none" stroke="#005476" stroke-width="2" stroke-linecap="round" stroke-linejoin="round" stroke-miterlimit="10" points="
				58.982,418.57 51.78,411.38 58.982,404.188 			"/>
		</g>
		<g id="MTEXT_133_">
			<g>
				<g>
					<g>
						<path fill="#005476" d="M346.262,417.113c-0.078-0.078-0.117-0.177-0.117-0.297v-0.54c0-0.275,0.15-0.54,0.45-0.792
							l3.924-3.906c0.888-0.756,1.5-1.374,1.836-1.854s0.504-0.99,0.504-1.53c0-0.708-0.198-1.263-0.594-1.665
							c-0.396-0.401-0.972-0.603-1.728-0.603c-0.721,0-1.291,0.21-1.711,0.63s-0.678,0.984-0.773,1.691
							c-0.024,0.133-0.084,0.234-0.18,0.307c-0.097,0.072-0.192,0.107-0.288,0.107h-0.864c-0.108,0-0.198-0.035-0.271-0.107
							c-0.071-0.072-0.107-0.156-0.107-0.252c0.023-0.636,0.194-1.251,0.513-1.846c0.318-0.594,0.789-1.079,1.413-1.458
							c0.624-0.378,1.38-0.566,2.269-0.566c1.344,0,2.354,0.351,3.032,1.053s1.018,1.593,1.018,2.673
							c0,0.756-0.184,1.438-0.549,2.043c-0.366,0.606-0.939,1.245-1.72,1.917l-3.546,3.601h5.67c0.132,0,0.234,0.036,0.307,0.107
							c0.071,0.072,0.107,0.175,0.107,0.307v0.684c0,0.12-0.039,0.219-0.117,0.297s-0.177,0.117-0.297,0.117h-7.884
							C346.438,417.23,346.34,417.191,346.262,417.113z"/>
						<path fill="#005476" d="M358.214,417.113c-0.066-0.078-0.1-0.171-0.1-0.279l0.036-0.161l4.5-10.53h-5.94
							c-0.12,0-0.219-0.039-0.297-0.117s-0.116-0.177-0.116-0.297v-0.666c0-0.132,0.035-0.237,0.107-0.315
							c0.072-0.077,0.174-0.116,0.306-0.116h7.345c0.132,0,0.233,0.039,0.306,0.116c0.072,0.078,0.108,0.184,0.108,0.315v0.612
							c0,0.216-0.049,0.449-0.145,0.702l-4.446,10.403c-0.06,0.133-0.126,0.24-0.197,0.324c-0.072,0.084-0.175,0.126-0.307,0.126
							h-0.899C358.366,417.23,358.279,417.191,358.214,417.113z"/>
						<path fill="#005476" d="M374.062,417.113c-0.071-0.078-0.107-0.177-0.107-0.297v-10.152l-3.024,2.322
							c-0.084,0.072-0.174,0.108-0.27,0.108c-0.108,0-0.21-0.061-0.307-0.181l-0.432-0.558c-0.061-0.084-0.09-0.168-0.09-0.252
							c0-0.132,0.06-0.24,0.18-0.324l3.906-3.023c0.132-0.084,0.288-0.126,0.468-0.126h0.846c0.12,0,0.219,0.039,0.297,0.116
							c0.078,0.078,0.117,0.178,0.117,0.298v11.771c0,0.12-0.039,0.219-0.117,0.297s-0.177,0.117-0.297,0.117h-0.882
							C374.229,417.23,374.134,417.191,374.062,417.113z"/>
						<path fill="#005476" d="M377.608,418.635c-0.072-0.072-0.108-0.156-0.108-0.252c0-0.049,0.019-0.12,0.055-0.217l6.155-14.777
							c0.108-0.204,0.264-0.307,0.468-0.307h0.666c0.097,0,0.181,0.036,0.252,0.108c0.072,0.072,0.108,0.156,0.108,0.252
							c0,0.048-0.018,0.12-0.054,0.216l-6.174,14.778c-0.024,0.072-0.075,0.141-0.153,0.207c-0.078,0.065-0.184,0.099-0.315,0.099
							h-0.647C377.764,418.742,377.681,418.706,377.608,418.635z"/>
						<path fill="#005476" d="M388.578,416.951c-0.714-0.306-1.269-0.747-1.665-1.322c-0.396-0.576-0.594-1.248-0.594-2.017
							c0-0.708,0.177-1.329,0.531-1.863c0.354-0.533,0.831-0.944,1.431-1.232c-0.479-0.276-0.852-0.639-1.116-1.089
							c-0.264-0.45-0.396-0.981-0.396-1.594c0-1.044,0.39-1.868,1.17-2.475c0.78-0.605,1.806-0.909,3.078-0.909
							c1.271,0,2.295,0.301,3.069,0.9c0.773,0.6,1.16,1.428,1.16,2.483c0,0.601-0.132,1.125-0.396,1.575
							c-0.265,0.45-0.63,0.819-1.098,1.107c0.6,0.288,1.076,0.699,1.431,1.232c0.354,0.534,0.531,1.161,0.531,1.882
							c0,0.768-0.198,1.437-0.595,2.007c-0.396,0.57-0.951,1.008-1.665,1.313c-0.714,0.307-1.526,0.459-2.438,0.459
							S389.292,417.258,388.578,416.951z M393.15,415.358c0.57-0.432,0.855-1.008,0.855-1.728c0-0.721-0.285-1.297-0.855-1.729
							s-1.281-0.647-2.133-0.647c-0.864,0-1.581,0.216-2.151,0.647c-0.569,0.432-0.854,1.008-0.854,1.729
							c0,0.72,0.285,1.296,0.854,1.728c0.57,0.432,1.287,0.648,2.151,0.648C391.869,416.007,392.58,415.79,393.15,415.358z
							 M392.871,409.311c0.504-0.36,0.756-0.84,0.756-1.44c0-0.611-0.249-1.101-0.746-1.467c-0.498-0.366-1.119-0.549-1.863-0.549
							c-0.756,0-1.38,0.183-1.872,0.549s-0.738,0.855-0.738,1.467c0,0.612,0.246,1.102,0.738,1.468s1.116,0.549,1.872,0.549
							C391.749,409.862,392.367,409.671,392.871,409.311z"/>
						<path fill="#005476" d="M398.056,407.996l-0.306-3.132v-0.072c0-0.107,0.032-0.191,0.099-0.252
							c0.065-0.06,0.153-0.09,0.261-0.09h1.134c0.12,0,0.213,0.039,0.279,0.117s0.093,0.178,0.081,0.297l-0.306,3.132
							c-0.024,0.265-0.145,0.396-0.36,0.396h-0.521C398.199,408.393,398.079,408.261,398.056,407.996z M400.81,407.996l-0.306-3.132
							v-0.036c0-0.119,0.032-0.213,0.099-0.278c0.065-0.066,0.153-0.1,0.261-0.1h1.135c0.119,0,0.213,0.039,0.278,0.117
							c0.066,0.078,0.093,0.178,0.081,0.297l-0.306,3.132c-0.024,0.265-0.145,0.396-0.36,0.396h-0.521
							C400.953,408.393,400.834,408.261,400.81,407.996z"/>
						<path fill="#005476" d="M409.269,420.857c-0.072-0.078-0.108-0.177-0.108-0.297v-19.044c0-0.12,0.036-0.219,0.108-0.297
							s0.168-0.117,0.288-0.117h0.666c0.12,0,0.219,0.039,0.297,0.117s0.117,0.177,0.117,0.297v19.044
							c0,0.12-0.039,0.219-0.117,0.297s-0.177,0.117-0.297,0.117h-0.666C409.437,420.975,409.341,420.936,409.269,420.857z"/>
						<path fill="#005476" d="M419.43,416.825c-0.702-0.39-1.236-0.915-1.603-1.575c-0.366-0.659-0.549-1.379-0.549-2.159
							c0-1.032,0.414-2.136,1.242-3.312l3.438-4.788c0.013-0.012,0.046-0.054,0.1-0.126s0.123-0.129,0.207-0.171
							s0.18-0.062,0.288-0.062h0.882c0.107,0,0.194,0.039,0.261,0.116c0.065,0.078,0.099,0.172,0.099,0.279
							c0,0.061-0.029,0.139-0.09,0.234l-2.628,3.672c0.312-0.072,0.66-0.108,1.044-0.108c0.876,0,1.647,0.195,2.313,0.585
							c0.666,0.391,1.182,0.906,1.548,1.548c0.366,0.643,0.549,1.348,0.549,2.115c0,0.769-0.183,1.485-0.549,2.151
							s-0.897,1.197-1.593,1.593c-0.696,0.396-1.519,0.594-2.466,0.594C420.962,417.41,420.132,417.216,419.43,416.825z
							 M423.362,415.593c0.444-0.216,0.798-0.537,1.062-0.963c0.264-0.426,0.396-0.939,0.396-1.539c0-0.588-0.135-1.096-0.405-1.521
							c-0.27-0.426-0.627-0.75-1.07-0.972c-0.444-0.222-0.925-0.333-1.44-0.333s-0.996,0.111-1.439,0.333
							c-0.444,0.222-0.799,0.546-1.062,0.972s-0.396,0.934-0.396,1.521c0,0.6,0.132,1.113,0.396,1.539s0.618,0.747,1.062,0.963
							c0.443,0.216,0.924,0.323,1.439,0.323C422.433,415.916,422.918,415.809,423.362,415.593z"/>
						<path fill="#005476" d="M430.428,417.113c-0.066-0.078-0.1-0.171-0.1-0.279c0-0.083,0.024-0.161,0.072-0.233l2.771-3.853
							c-0.288,0.072-0.624,0.108-1.008,0.108c-0.864-0.012-1.62-0.213-2.268-0.603c-0.648-0.391-1.144-0.9-1.485-1.53
							s-0.513-1.305-0.513-2.025c0-0.72,0.171-1.403,0.513-2.052s0.852-1.176,1.53-1.584c0.678-0.408,1.497-0.612,2.457-0.612
							s1.782,0.198,2.466,0.595c0.684,0.396,1.2,0.915,1.548,1.557s0.522,1.329,0.522,2.061c0,0.66-0.117,1.242-0.352,1.746
							c-0.233,0.504-0.543,1.026-0.927,1.566l-3.492,4.896c-0.084,0.108-0.165,0.195-0.243,0.262
							c-0.078,0.065-0.188,0.099-0.333,0.099h-0.899C430.58,417.23,430.493,417.191,430.428,417.113z M433.82,411.093
							c0.432-0.229,0.773-0.549,1.026-0.963c0.252-0.414,0.378-0.892,0.378-1.432c0-0.552-0.126-1.037-0.378-1.458
							c-0.253-0.42-0.595-0.744-1.026-0.972s-0.906-0.342-1.422-0.342c-0.504,0-0.97,0.114-1.396,0.342s-0.765,0.552-1.017,0.972
							c-0.252,0.421-0.378,0.906-0.378,1.458c0,0.54,0.126,1.018,0.378,1.432s0.588,0.734,1.008,0.963
							c0.42,0.228,0.888,0.342,1.404,0.342C432.914,411.435,433.389,411.32,433.82,411.093z"/>
						<path fill="#005476" d="M444.35,416.321c-0.72-0.726-1.098-1.743-1.134-3.051l-0.019-0.72l0.019-0.721
							c0.036-1.308,0.414-2.324,1.134-3.051c0.72-0.726,1.722-1.089,3.006-1.089c0.864,0,1.593,0.153,2.188,0.459
							c0.594,0.306,1.037,0.688,1.332,1.143c0.294,0.457,0.452,0.912,0.477,1.368c0.012,0.108-0.027,0.204-0.117,0.288
							s-0.188,0.126-0.297,0.126h-0.792c-0.12,0-0.21-0.026-0.27-0.081c-0.061-0.054-0.12-0.152-0.181-0.297
							c-0.216-0.588-0.513-1.005-0.891-1.251s-0.855-0.369-1.431-0.369c-0.757,0-1.356,0.234-1.801,0.702
							c-0.443,0.468-0.684,1.183-0.72,2.143l-0.018,0.63l0.018,0.63c0.036,0.96,0.276,1.674,0.72,2.142
							c0.444,0.468,1.044,0.702,1.801,0.702c0.588,0,1.067-0.123,1.439-0.369s0.666-0.663,0.882-1.251
							c0.061-0.144,0.12-0.243,0.181-0.297c0.06-0.054,0.149-0.081,0.27-0.081h0.792c0.108,0,0.207,0.042,0.297,0.126
							s0.129,0.18,0.117,0.288c-0.024,0.444-0.183,0.895-0.477,1.35c-0.295,0.457-0.738,0.841-1.332,1.152
							c-0.595,0.312-1.323,0.468-2.188,0.468C446.071,417.41,445.069,417.048,444.35,416.321z"/>
						<path fill="#005476" d="M453.628,417.113c-0.078-0.078-0.117-0.177-0.117-0.297v-8.532c0-0.119,0.039-0.219,0.117-0.297
							s0.177-0.117,0.297-0.117h0.756c0.12,0,0.217,0.039,0.288,0.117c0.072,0.078,0.108,0.178,0.108,0.297v0.612
							c0.647-0.804,1.523-1.206,2.628-1.206c1.32,0,2.256,0.552,2.808,1.656c0.288-0.504,0.699-0.906,1.233-1.206
							s1.131-0.45,1.791-0.45c0.983,0,1.788,0.336,2.412,1.008c0.624,0.673,0.936,1.645,0.936,2.916v5.202
							c0,0.12-0.039,0.219-0.117,0.297s-0.177,0.117-0.297,0.117h-0.773c-0.12,0-0.22-0.039-0.297-0.117
							c-0.078-0.078-0.117-0.177-0.117-0.297v-5.04c0-0.96-0.198-1.646-0.594-2.061c-0.396-0.414-0.918-0.621-1.566-0.621
							c-0.576,0-1.071,0.213-1.485,0.639s-0.621,1.107-0.621,2.043v5.04c0,0.12-0.039,0.219-0.116,0.297
							c-0.078,0.078-0.178,0.117-0.297,0.117h-0.792c-0.12,0-0.22-0.039-0.298-0.117s-0.116-0.177-0.116-0.297v-5.04
							c0-0.947-0.207-1.632-0.621-2.052s-0.928-0.63-1.539-0.63c-0.576,0-1.071,0.21-1.485,0.63s-0.621,1.098-0.621,2.034v5.058
							c0,0.12-0.039,0.219-0.117,0.297s-0.177,0.117-0.297,0.117h-0.792C453.805,417.23,453.706,417.191,453.628,417.113z"/>
					</g>
				</g>
			</g>
		</g>
	</g>
	<g>
		<g id="POLYLINE_979_">
			
				<line fill="none" stroke="#005476" stroke-width="2" stroke-linecap="round" stroke-linejoin="round" stroke-miterlimit="10" x1="568.409" y1="196.495" x2="568.409" y2="51.751"/>
		</g>
		<g id="POLYLINE_978_">
			
				<line fill="none" stroke="#005476" stroke-width="2" stroke-linecap="round" stroke-linejoin="round" stroke-miterlimit="10" x1="568.409" y1="384.007" x2="568.409" y2="241"/>
		</g>
		<g id="POLYLINE_977_">
			
				<polyline fill="none" stroke="#005476" stroke-width="2" stroke-linecap="round" stroke-linejoin="round" stroke-miterlimit="10" points="
				575.6,58.943 568.409,51.751 561.217,58.943 			"/>
		</g>
		<g id="POLYLINE_976_">
			
				<polyline fill="none" stroke="#005476" stroke-width="2" stroke-linecap="round" stroke-linejoin="round" stroke-miterlimit="10" points="
				575.6,376.805 568.409,384.007 561.217,376.805 			"/>
		</g>
		<g id="MTEXT_130_">
			<g>
				<g>
					<g>
						<path fill="#005476" d="M565.939,216.753c-0.071-0.078-0.107-0.177-0.107-0.297v-10.152l-3.024,2.322
							c-0.084,0.072-0.174,0.108-0.27,0.108c-0.108,0-0.21-0.061-0.307-0.181l-0.432-0.558c-0.061-0.084-0.09-0.168-0.09-0.252
							c0-0.132,0.06-0.24,0.18-0.324l3.906-3.023c0.132-0.084,0.288-0.126,0.468-0.126h0.846c0.12,0,0.219,0.039,0.297,0.116
							c0.078,0.078,0.117,0.178,0.117,0.298v11.771c0,0.12-0.039,0.219-0.117,0.297s-0.177,0.117-0.297,0.117h-0.882
							C566.107,216.87,566.012,216.831,565.939,216.753z"/>
						<path fill="#005476" d="M572.176,216.591c-0.714-0.306-1.269-0.747-1.665-1.322c-0.396-0.576-0.594-1.248-0.594-2.017
							c0-0.708,0.177-1.329,0.531-1.863c0.354-0.533,0.831-0.944,1.431-1.232c-0.479-0.276-0.852-0.639-1.116-1.089
							c-0.264-0.45-0.396-0.981-0.396-1.594c0-1.044,0.39-1.868,1.17-2.475c0.78-0.605,1.806-0.909,3.078-0.909
							c1.271,0,2.295,0.301,3.069,0.9c0.773,0.6,1.16,1.428,1.16,2.483c0,0.601-0.132,1.125-0.396,1.575
							c-0.265,0.45-0.63,0.819-1.098,1.107c0.6,0.288,1.076,0.699,1.431,1.232c0.354,0.534,0.531,1.161,0.531,1.882
							c0,0.768-0.198,1.437-0.595,2.007c-0.396,0.57-0.951,1.008-1.665,1.313c-0.714,0.307-1.526,0.459-2.438,0.459
							S572.89,216.897,572.176,216.591z M576.748,214.998c0.57-0.432,0.855-1.008,0.855-1.728c0-0.721-0.285-1.297-0.855-1.729
							s-1.281-0.647-2.133-0.647c-0.864,0-1.581,0.216-2.151,0.647c-0.569,0.432-0.854,1.008-0.854,1.729
							c0,0.72,0.285,1.296,0.854,1.728c0.57,0.432,1.287,0.648,2.151,0.648C575.467,215.646,576.178,215.43,576.748,214.998z
							 M576.469,208.95c0.504-0.36,0.756-0.84,0.756-1.44c0-0.611-0.249-1.101-0.746-1.467c-0.498-0.366-1.119-0.549-1.863-0.549
							c-0.756,0-1.38,0.183-1.872,0.549s-0.738,0.855-0.738,1.467c0,0.612,0.246,1.102,0.738,1.468s1.116,0.549,1.872,0.549
							C575.347,209.502,575.965,209.311,576.469,208.95z"/>
						<path fill="#005476" d="M589.429,216.753c-0.071-0.078-0.107-0.177-0.107-0.297v-10.152l-3.024,2.322
							c-0.084,0.072-0.174,0.108-0.27,0.108c-0.108,0-0.21-0.061-0.307-0.181l-0.432-0.558c-0.061-0.084-0.09-0.168-0.09-0.252
							c0-0.132,0.06-0.24,0.18-0.324l3.906-3.023c0.132-0.084,0.288-0.126,0.468-0.126h0.846c0.12,0,0.219,0.039,0.297,0.116
							c0.078,0.078,0.117,0.178,0.117,0.298v11.771c0,0.12-0.039,0.219-0.117,0.297s-0.177,0.117-0.297,0.117h-0.882
							C589.597,216.87,589.501,216.831,589.429,216.753z"/>
						<path fill="#005476" d="M592.975,218.274c-0.072-0.072-0.108-0.156-0.108-0.252c0-0.049,0.019-0.12,0.055-0.217l6.155-14.777
							c0.108-0.204,0.264-0.307,0.468-0.307h0.666c0.097,0,0.181,0.036,0.252,0.108c0.072,0.072,0.108,0.156,0.108,0.252
							c0,0.048-0.018,0.12-0.054,0.216l-6.174,14.778c-0.024,0.072-0.075,0.141-0.153,0.207c-0.078,0.065-0.184,0.099-0.315,0.099
							h-0.647C593.13,218.382,593.047,218.346,592.975,218.274z"/>
						<path fill="#005476" d="M601.785,216.753c-0.078-0.078-0.117-0.177-0.117-0.297v-0.54c0-0.275,0.15-0.54,0.45-0.792
							l3.924-3.906c0.888-0.756,1.5-1.374,1.836-1.854s0.504-0.99,0.504-1.53c0-0.708-0.198-1.263-0.594-1.665
							c-0.396-0.401-0.972-0.603-1.728-0.603c-0.721,0-1.291,0.21-1.711,0.63s-0.678,0.984-0.773,1.691
							c-0.024,0.133-0.084,0.234-0.18,0.307c-0.097,0.072-0.192,0.107-0.288,0.107h-0.864c-0.108,0-0.198-0.035-0.271-0.107
							c-0.071-0.072-0.107-0.156-0.107-0.252c0.023-0.636,0.194-1.251,0.513-1.846c0.318-0.594,0.789-1.079,1.413-1.458
							c0.624-0.378,1.38-0.566,2.269-0.566c1.344,0,2.354,0.351,3.032,1.053s1.018,1.593,1.018,2.673
							c0,0.756-0.184,1.438-0.549,2.043c-0.366,0.606-0.939,1.245-1.72,1.917l-3.546,3.601h5.67c0.132,0,0.234,0.036,0.307,0.107
							c0.071,0.072,0.107,0.175,0.107,0.307v0.684c0,0.12-0.039,0.219-0.117,0.297s-0.177,0.117-0.297,0.117h-7.884
							C601.962,216.87,601.863,216.831,601.785,216.753z"/>
						<path fill="#005476" d="M612.631,207.636l-0.306-3.132v-0.072c0-0.107,0.032-0.191,0.099-0.252
							c0.065-0.06,0.153-0.09,0.261-0.09h1.134c0.12,0,0.213,0.039,0.279,0.117s0.093,0.178,0.081,0.297l-0.306,3.132
							c-0.024,0.265-0.145,0.396-0.36,0.396h-0.521C612.774,208.032,612.654,207.9,612.631,207.636z M615.385,207.636l-0.306-3.132
							v-0.036c0-0.119,0.032-0.213,0.099-0.278c0.065-0.066,0.153-0.1,0.261-0.1h1.135c0.119,0,0.213,0.039,0.278,0.117
							c0.066,0.078,0.093,0.178,0.081,0.297l-0.306,3.132c-0.024,0.265-0.145,0.396-0.36,0.396h-0.521
							C615.528,208.032,615.409,207.9,615.385,207.636z"/>
						<path fill="#005476" d="M568.198,234.353c-0.078-0.078-0.116-0.177-0.116-0.297v-2.628h-5.851
							c-0.12,0-0.219-0.039-0.297-0.117s-0.117-0.177-0.117-0.297v-0.666c0-0.168,0.066-0.348,0.198-0.54l5.418-7.632
							c0.06-0.096,0.15-0.171,0.271-0.225c0.119-0.055,0.252-0.081,0.396-0.081h1.224c0.133,0,0.234,0.035,0.307,0.107
							s0.107,0.174,0.107,0.307v7.632h1.639c0.119,0,0.219,0.039,0.297,0.117s0.117,0.177,0.117,0.297v0.684
							c0,0.12-0.039,0.219-0.117,0.297s-0.178,0.117-0.297,0.117h-1.639v2.628c0,0.12-0.039,0.219-0.116,0.297
							c-0.078,0.078-0.178,0.117-0.298,0.117h-0.827C568.376,234.47,568.276,234.431,568.198,234.353z M563.689,229.952h4.41v-6.265
							L563.689,229.952z"/>
						<path fill="#005476" d="M574.499,234.353c-0.066-0.078-0.1-0.171-0.1-0.279l0.036-0.161l4.5-10.53h-5.94
							c-0.12,0-0.219-0.039-0.297-0.117s-0.116-0.177-0.116-0.297v-0.666c0-0.132,0.035-0.237,0.107-0.315
							c0.072-0.077,0.174-0.116,0.306-0.116h7.345c0.132,0,0.233,0.039,0.306,0.116c0.072,0.078,0.108,0.184,0.108,0.315v0.612
							c0,0.216-0.049,0.449-0.145,0.702l-4.446,10.403c-0.06,0.133-0.126,0.24-0.197,0.324c-0.072,0.084-0.175,0.126-0.307,0.126
							h-0.899C574.651,234.47,574.564,234.431,574.499,234.353z"/>
						<path fill="#005476" d="M587.755,233.561c-0.72-0.726-1.098-1.743-1.134-3.051l-0.019-0.72l0.019-0.721
							c0.036-1.308,0.414-2.324,1.134-3.051c0.72-0.726,1.722-1.089,3.006-1.089c0.864,0,1.593,0.153,2.188,0.459
							c0.594,0.306,1.037,0.688,1.332,1.143c0.294,0.457,0.452,0.912,0.477,1.368c0.012,0.108-0.027,0.204-0.117,0.288
							s-0.188,0.126-0.297,0.126h-0.792c-0.12,0-0.21-0.026-0.27-0.081c-0.061-0.054-0.12-0.152-0.181-0.297
							c-0.216-0.588-0.513-1.005-0.891-1.251s-0.855-0.369-1.431-0.369c-0.757,0-1.356,0.234-1.801,0.702
							c-0.443,0.468-0.684,1.183-0.72,2.143l-0.018,0.63l0.018,0.63c0.036,0.96,0.276,1.674,0.72,2.142
							c0.444,0.468,1.044,0.702,1.801,0.702c0.588,0,1.067-0.123,1.439-0.369s0.666-0.663,0.882-1.251
							c0.061-0.144,0.12-0.243,0.181-0.297c0.06-0.054,0.149-0.081,0.27-0.081h0.792c0.108,0,0.207,0.042,0.297,0.126
							s0.129,0.18,0.117,0.288c-0.024,0.444-0.183,0.895-0.477,1.35c-0.295,0.457-0.738,0.841-1.332,1.152
							c-0.595,0.312-1.323,0.468-2.188,0.468C589.477,234.649,588.475,234.287,587.755,233.561z"/>
						<path fill="#005476" d="M597.034,234.353c-0.078-0.078-0.117-0.177-0.117-0.297v-8.532c0-0.119,0.039-0.219,0.117-0.297
							s0.177-0.117,0.297-0.117h0.756c0.12,0,0.217,0.039,0.288,0.117c0.072,0.078,0.108,0.178,0.108,0.297v0.612
							c0.647-0.804,1.523-1.206,2.628-1.206c1.32,0,2.256,0.552,2.808,1.656c0.288-0.504,0.699-0.906,1.233-1.206
							s1.131-0.45,1.791-0.45c0.983,0,1.788,0.336,2.412,1.008c0.624,0.673,0.936,1.645,0.936,2.916v5.202
							c0,0.12-0.039,0.219-0.117,0.297s-0.177,0.117-0.297,0.117h-0.773c-0.12,0-0.22-0.039-0.297-0.117
							c-0.078-0.078-0.117-0.177-0.117-0.297v-5.04c0-0.96-0.198-1.646-0.594-2.061c-0.396-0.414-0.918-0.621-1.566-0.621
							c-0.576,0-1.071,0.213-1.485,0.639s-0.621,1.107-0.621,2.043v5.04c0,0.12-0.039,0.219-0.116,0.297
							c-0.078,0.078-0.178,0.117-0.297,0.117h-0.792c-0.12,0-0.22-0.039-0.298-0.117s-0.116-0.177-0.116-0.297v-5.04
							c0-0.947-0.207-1.632-0.621-2.052s-0.928-0.63-1.539-0.63c-0.576,0-1.071,0.21-1.485,0.63s-0.621,1.098-0.621,2.034v5.058
							c0,0.12-0.039,0.219-0.117,0.297s-0.177,0.117-0.297,0.117h-0.792C597.211,234.47,597.112,234.431,597.034,234.353z"/>
					</g>
				</g>
			</g>
		</g>
	</g>
	<g>
		<g id="POLYLINE_1055_">
			
				<line fill="none" stroke="#005476" stroke-width="2" stroke-linecap="round" stroke-linejoin="round" stroke-miterlimit="10" x1="476.409" y1="199.495" x2="476.409" y2="87.751"/>
		</g>
		<g id="POLYLINE_1054_">
			
				<line fill="none" stroke="#005476" stroke-width="2" stroke-linecap="round" stroke-linejoin="round" stroke-miterlimit="10" x1="476.409" y1="354.007" x2="476.409" y2="244"/>
		</g>
		<g id="POLYLINE_1053_">
			
				<polyline fill="none" stroke="#005476" stroke-width="2" stroke-linecap="round" stroke-linejoin="round" stroke-miterlimit="10" points="
				483.6,94.943 476.409,87.751 469.217,94.943 			"/>
		</g>
		<g id="POLYLINE_1052_">
			
				<polyline fill="none" stroke="#005476" stroke-width="2" stroke-linecap="round" stroke-linejoin="round" stroke-miterlimit="10" points="
				483.6,346.805 476.409,354.007 469.217,346.805 			"/>
		</g>
		<g id="MTEXT_169_">
			<g>
				<g>
					<g>
						<path fill="#005476" d="M454.531,218.753c-0.071-0.078-0.107-0.177-0.107-0.297v-10.152l-3.024,2.322
							c-0.084,0.072-0.174,0.108-0.27,0.108c-0.108,0-0.21-0.061-0.307-0.181l-0.432-0.558c-0.061-0.084-0.09-0.168-0.09-0.252
							c0-0.132,0.06-0.24,0.18-0.324l3.906-3.023c0.132-0.084,0.288-0.126,0.468-0.126h0.846c0.12,0,0.219,0.039,0.297,0.116
							c0.078,0.078,0.117,0.178,0.117,0.298v11.771c0,0.12-0.039,0.219-0.117,0.297s-0.177,0.117-0.297,0.117h-0.882
							C454.699,218.87,454.604,218.831,454.531,218.753z"/>
						<path fill="#005476" d="M460.399,218.564c-0.66-0.324-1.164-0.747-1.513-1.27c-0.348-0.521-0.534-1.083-0.558-1.683v-0.036
							c0-0.096,0.036-0.174,0.107-0.234c0.072-0.06,0.156-0.09,0.252-0.09h0.883c0.252,0,0.414,0.133,0.485,0.396
							c0.181,0.647,0.514,1.131,0.999,1.448c0.486,0.318,1.047,0.478,1.684,0.478c0.815,0,1.493-0.249,2.033-0.747
							s0.811-1.185,0.811-2.061c0-0.805-0.271-1.443-0.811-1.918c-0.54-0.474-1.218-0.711-2.033-0.711
							c-0.433,0-0.78,0.055-1.044,0.162c-0.265,0.108-0.534,0.265-0.811,0.469c-0.156,0.12-0.285,0.207-0.387,0.261
							c-0.103,0.054-0.213,0.081-0.333,0.081h-0.864c-0.107,0-0.204-0.039-0.288-0.117s-0.12-0.171-0.107-0.279l0.558-5.994
							c0.036-0.3,0.186-0.449,0.45-0.449h6.228c0.132,0,0.234,0.035,0.307,0.107c0.071,0.072,0.107,0.174,0.107,0.307v0.666
							c0,0.119-0.039,0.216-0.117,0.287c-0.078,0.072-0.177,0.108-0.297,0.108h-5.184l-0.324,3.618
							c0.576-0.408,1.351-0.612,2.322-0.612c0.804,0,1.536,0.159,2.196,0.478c0.659,0.317,1.185,0.782,1.574,1.395
							s0.585,1.338,0.585,2.178c0,0.889-0.195,1.653-0.585,2.295c-0.39,0.643-0.93,1.129-1.62,1.458
							c-0.689,0.33-1.479,0.495-2.366,0.495C461.839,219.05,461.059,218.888,460.399,218.564z"/>
						<path fill="#005476" d="M475.483,218.591c-0.685-0.306-1.204-0.704-1.558-1.196s-0.543-1.002-0.566-1.53
							c0-0.108,0.035-0.195,0.107-0.261c0.072-0.066,0.162-0.1,0.271-0.1h0.81c0.132,0,0.24,0.027,0.324,0.081
							s0.149,0.159,0.198,0.315c0.155,0.611,0.494,1.044,1.017,1.296s1.137,0.378,1.845,0.378c0.864,0,1.551-0.207,2.062-0.621
							c0.51-0.414,0.765-1.005,0.765-1.773c0-1.464-0.894-2.195-2.682-2.195h-1.692c-0.12,0-0.219-0.039-0.297-0.117
							s-0.117-0.177-0.117-0.297v-0.468c0-0.181,0.066-0.336,0.198-0.469l3.51-3.888h-5.328c-0.12,0-0.219-0.036-0.297-0.108
							c-0.078-0.071-0.117-0.168-0.117-0.287v-0.648c0-0.132,0.039-0.237,0.117-0.315c0.078-0.077,0.177-0.116,0.297-0.116h7.128
							c0.132,0,0.237,0.039,0.315,0.116c0.078,0.078,0.117,0.184,0.117,0.315v0.594c0,0.133-0.061,0.271-0.181,0.414l-3.51,3.942
							h0.288c1.224,0.036,2.193,0.354,2.907,0.954c0.714,0.6,1.07,1.476,1.07,2.628c0,0.792-0.194,1.473-0.585,2.043
							c-0.39,0.57-0.933,1.008-1.629,1.313c-0.695,0.307-1.481,0.459-2.357,0.459C476.977,219.05,476.167,218.897,475.483,218.591z"
							/>
						<path fill="#005476" d="M483.853,220.274c-0.072-0.072-0.108-0.156-0.108-0.252c0-0.049,0.019-0.12,0.055-0.217l6.155-14.777
							c0.108-0.204,0.264-0.307,0.468-0.307h0.666c0.097,0,0.181,0.036,0.252,0.108c0.072,0.072,0.108,0.156,0.108,0.252
							c0,0.048-0.018,0.12-0.054,0.216l-6.174,14.778c-0.024,0.072-0.075,0.141-0.153,0.207c-0.078,0.065-0.184,0.099-0.315,0.099
							h-0.647C484.008,220.382,483.925,220.346,483.853,220.274z"/>
						<path fill="#005476" d="M497.829,218.753c-0.078-0.078-0.116-0.177-0.116-0.297v-2.628h-5.851
							c-0.12,0-0.219-0.039-0.297-0.117s-0.117-0.177-0.117-0.297v-0.666c0-0.168,0.066-0.348,0.198-0.54l5.418-7.632
							c0.06-0.096,0.15-0.171,0.271-0.225c0.119-0.055,0.252-0.081,0.396-0.081h1.224c0.133,0,0.234,0.035,0.307,0.107
							s0.107,0.174,0.107,0.307v7.632h1.639c0.119,0,0.219,0.039,0.297,0.117s0.117,0.177,0.117,0.297v0.684
							c0,0.12-0.039,0.219-0.117,0.297s-0.178,0.117-0.297,0.117h-1.639v2.628c0,0.12-0.039,0.219-0.116,0.297
							c-0.078,0.078-0.178,0.117-0.298,0.117h-0.827C498.007,218.87,497.907,218.831,497.829,218.753z M493.32,214.353h4.41v-6.265
							L493.32,214.353z"/>
						<path fill="#005476" d="M502.933,209.636l-0.306-3.132v-0.072c0-0.107,0.032-0.191,0.099-0.252
							c0.065-0.06,0.153-0.09,0.261-0.09h1.134c0.12,0,0.213,0.039,0.279,0.117s0.093,0.178,0.081,0.297l-0.306,3.132
							c-0.024,0.265-0.145,0.396-0.36,0.396h-0.521C503.076,210.032,502.956,209.9,502.933,209.636z M505.687,209.636l-0.306-3.132
							v-0.036c0-0.119,0.032-0.213,0.099-0.278c0.065-0.066,0.153-0.1,0.261-0.1h1.135c0.119,0,0.213,0.039,0.278,0.117
							c0.066,0.078,0.093,0.178,0.081,0.297l-0.306,3.132c-0.024,0.265-0.145,0.396-0.36,0.396h-0.521
							C505.83,210.032,505.711,209.9,505.687,209.636z"/>
						<path fill="#005476" d="M462.37,236.353c-0.078-0.078-0.116-0.177-0.116-0.297v-2.628h-5.851c-0.12,0-0.219-0.039-0.297-0.117
							s-0.117-0.177-0.117-0.297v-0.666c0-0.168,0.066-0.348,0.198-0.54l5.418-7.632c0.06-0.096,0.15-0.171,0.271-0.225
							c0.119-0.055,0.252-0.081,0.396-0.081h1.224c0.133,0,0.234,0.035,0.307,0.107s0.107,0.174,0.107,0.307v7.632h1.639
							c0.119,0,0.219,0.039,0.297,0.117s0.117,0.177,0.117,0.297v0.684c0,0.12-0.039,0.219-0.117,0.297s-0.178,0.117-0.297,0.117
							h-1.639v2.628c0,0.12-0.039,0.219-0.116,0.297c-0.078,0.078-0.178,0.117-0.298,0.117h-0.827
							C462.548,236.47,462.448,236.431,462.37,236.353z M457.861,231.952h4.41v-6.265L457.861,231.952z"/>
						<path fill="#005476" d="M468.851,235.291c-0.714-0.906-1.095-2.091-1.143-3.556l-0.019-1.548l0.019-1.602
							c0.035-1.452,0.416-2.631,1.143-3.537c0.726-0.906,1.856-1.359,3.393-1.359c1.549,0,2.686,0.453,3.411,1.359
							c0.727,0.906,1.107,2.085,1.144,3.537c0.012,0.336,0.018,0.87,0.018,1.602c0,0.708-0.006,1.225-0.018,1.548
							c-0.049,1.465-0.43,2.649-1.144,3.556s-1.851,1.358-3.411,1.358C470.695,236.649,469.564,236.197,468.851,235.291z
							 M474.332,234.237c0.468-0.611,0.713-1.476,0.737-2.592c0.012-0.348,0.019-0.846,0.019-1.494c0-0.659-0.007-1.151-0.019-1.476
							c-0.024-1.104-0.272-1.965-0.747-2.583c-0.474-0.618-1.167-0.927-2.079-0.927s-1.602,0.309-2.069,0.927
							s-0.714,1.479-0.738,2.583l-0.018,1.476l0.018,1.494c0.024,1.116,0.271,1.98,0.738,2.592c0.468,0.612,1.157,0.918,2.069,0.918
							C473.168,235.155,473.863,234.85,474.332,234.237z"/>
						<path fill="#005476" d="M484.465,235.561c-0.72-0.726-1.098-1.743-1.134-3.051l-0.019-0.72l0.019-0.721
							c0.036-1.308,0.414-2.324,1.134-3.051c0.72-0.726,1.722-1.089,3.006-1.089c0.864,0,1.593,0.153,2.188,0.459
							c0.594,0.306,1.037,0.688,1.332,1.143c0.294,0.457,0.452,0.912,0.477,1.368c0.012,0.108-0.027,0.204-0.117,0.288
							s-0.188,0.126-0.297,0.126h-0.792c-0.12,0-0.21-0.026-0.27-0.081c-0.061-0.054-0.12-0.152-0.181-0.297
							c-0.216-0.588-0.513-1.005-0.891-1.251s-0.855-0.369-1.431-0.369c-0.757,0-1.356,0.234-1.801,0.702
							c-0.443,0.468-0.684,1.183-0.72,2.143l-0.018,0.63l0.018,0.63c0.036,0.96,0.276,1.674,0.72,2.142
							c0.444,0.468,1.044,0.702,1.801,0.702c0.588,0,1.067-0.123,1.439-0.369s0.666-0.663,0.882-1.251
							c0.061-0.144,0.12-0.243,0.181-0.297c0.06-0.054,0.149-0.081,0.27-0.081h0.792c0.108,0,0.207,0.042,0.297,0.126
							s0.129,0.18,0.117,0.288c-0.024,0.444-0.183,0.895-0.477,1.35c-0.295,0.457-0.738,0.841-1.332,1.152
							c-0.595,0.312-1.323,0.468-2.188,0.468C486.187,236.649,485.185,236.287,484.465,235.561z"/>
						<path fill="#005476" d="M493.743,236.353c-0.078-0.078-0.117-0.177-0.117-0.297v-8.532c0-0.119,0.039-0.219,0.117-0.297
							s0.177-0.117,0.297-0.117h0.756c0.12,0,0.217,0.039,0.288,0.117c0.072,0.078,0.108,0.178,0.108,0.297v0.612
							c0.647-0.804,1.523-1.206,2.628-1.206c1.32,0,2.256,0.552,2.808,1.656c0.288-0.504,0.699-0.906,1.233-1.206
							s1.131-0.45,1.791-0.45c0.983,0,1.788,0.336,2.412,1.008c0.624,0.673,0.936,1.645,0.936,2.916v5.202
							c0,0.12-0.039,0.219-0.117,0.297s-0.177,0.117-0.297,0.117h-0.773c-0.12,0-0.22-0.039-0.297-0.117
							c-0.078-0.078-0.117-0.177-0.117-0.297v-5.04c0-0.96-0.198-1.646-0.594-2.061c-0.396-0.414-0.918-0.621-1.566-0.621
							c-0.576,0-1.071,0.213-1.485,0.639s-0.621,1.107-0.621,2.043v5.04c0,0.12-0.039,0.219-0.116,0.297
							c-0.078,0.078-0.178,0.117-0.297,0.117h-0.792c-0.12,0-0.22-0.039-0.298-0.117s-0.116-0.177-0.116-0.297v-5.04
							c0-0.947-0.207-1.632-0.621-2.052s-0.928-0.63-1.539-0.63c-0.576,0-1.071,0.21-1.485,0.63s-0.621,1.098-0.621,2.034v5.058
							c0,0.12-0.039,0.219-0.117,0.297s-0.177,0.117-0.297,0.117h-0.792C493.92,236.47,493.821,236.431,493.743,236.353z"/>
					</g>
				</g>
			</g>
		</g>
	</g>
	<g>
		<g id="POLYLINE_1051_">
			
				<line fill="none" stroke="#005476" stroke-width="2" stroke-linecap="round" stroke-linejoin="round" stroke-miterlimit="10" x1="438" y1="117.38" x2="510.036" y2="117.38"/>
		</g>
		<g id="POLYLINE_1050_">
			
				<line fill="none" stroke="#005476" stroke-width="2" stroke-linecap="round" stroke-linejoin="round" stroke-miterlimit="10" x1="297.78" y1="117.38" x2="335" y2="117.38"/>
		</g>
		<g id="POLYLINE_1049_">
			
				<polyline fill="none" stroke="#005476" stroke-width="2" stroke-linecap="round" stroke-linejoin="round" stroke-miterlimit="10" points="
				502.844,124.57 510.036,117.38 502.844,110.188 			"/>
		</g>
		<g id="POLYLINE_1048_">
			
				<polyline fill="none" stroke="#005476" stroke-width="2" stroke-linecap="round" stroke-linejoin="round" stroke-miterlimit="10" points="
				304.982,124.57 297.78,117.38 304.982,110.188 			"/>
		</g>
		<g id="MTEXT_164_">
			<g>
				<g>
					<g>
						<path fill="#005476" d="M346.634,122.113c-0.071-0.078-0.107-0.177-0.107-0.297v-10.152l-3.024,2.322
							c-0.084,0.072-0.174,0.108-0.27,0.108c-0.108,0-0.21-0.061-0.307-0.181l-0.432-0.558c-0.061-0.084-0.09-0.168-0.09-0.252
							c0-0.132,0.06-0.24,0.18-0.324l3.906-3.023c0.132-0.084,0.288-0.126,0.468-0.126h0.846c0.12,0,0.219,0.039,0.297,0.116
							c0.078,0.078,0.117,0.178,0.117,0.298v11.771c0,0.12-0.039,0.219-0.117,0.297s-0.177,0.117-0.297,0.117h-0.882
							C346.802,122.23,346.706,122.191,346.634,122.113z"/>
						<path fill="#005476" d="M352.502,121.951c-0.685-0.306-1.204-0.704-1.558-1.196s-0.543-1.002-0.566-1.53
							c0-0.108,0.035-0.195,0.107-0.261c0.072-0.066,0.162-0.1,0.271-0.1h0.81c0.132,0,0.24,0.027,0.324,0.081
							s0.149,0.159,0.198,0.315c0.155,0.611,0.494,1.044,1.017,1.296s1.137,0.378,1.845,0.378c0.864,0,1.551-0.207,2.062-0.621
							c0.51-0.414,0.765-1.005,0.765-1.773c0-1.464-0.894-2.195-2.682-2.195h-1.692c-0.12,0-0.219-0.039-0.297-0.117
							s-0.117-0.177-0.117-0.297v-0.468c0-0.181,0.066-0.336,0.198-0.469l3.51-3.888h-5.328c-0.12,0-0.219-0.036-0.297-0.108
							c-0.078-0.071-0.117-0.168-0.117-0.287v-0.648c0-0.132,0.039-0.237,0.117-0.315c0.078-0.077,0.177-0.116,0.297-0.116h7.128
							c0.132,0,0.237,0.039,0.315,0.116c0.078,0.078,0.117,0.184,0.117,0.315v0.594c0,0.133-0.061,0.271-0.181,0.414l-3.51,3.942
							h0.288c1.224,0.036,2.193,0.354,2.907,0.954c0.714,0.6,1.07,1.476,1.07,2.628c0,0.792-0.194,1.473-0.585,2.043
							c-0.39,0.57-0.933,1.008-1.629,1.313c-0.695,0.307-1.481,0.459-2.357,0.459C353.995,122.41,353.186,122.258,352.502,121.951z"
							/>
						<path fill="#005476" d="M361.699,112.996l-0.306-3.132v-0.072c0-0.107,0.032-0.191,0.099-0.252
							c0.065-0.06,0.153-0.09,0.261-0.09h1.134c0.12,0,0.213,0.039,0.279,0.117s0.093,0.178,0.081,0.297l-0.306,3.132
							c-0.024,0.265-0.145,0.396-0.36,0.396h-0.521C361.843,113.393,361.723,113.261,361.699,112.996z M364.453,112.996
							l-0.306-3.132v-0.036c0-0.119,0.032-0.213,0.099-0.278c0.065-0.066,0.153-0.1,0.261-0.1h1.135
							c0.119,0,0.213,0.039,0.278,0.117c0.066,0.078,0.093,0.178,0.081,0.297l-0.306,3.132c-0.024,0.265-0.145,0.396-0.36,0.396
							h-0.521C364.597,113.393,364.478,113.261,364.453,112.996z"/>
						<path fill="#005476" d="M372.913,125.857c-0.072-0.078-0.108-0.177-0.108-0.297v-19.044c0-0.12,0.036-0.219,0.108-0.297
							s0.168-0.117,0.288-0.117h0.666c0.12,0,0.219,0.039,0.297,0.117s0.117,0.177,0.117,0.297v19.044
							c0,0.12-0.039,0.219-0.117,0.297s-0.177,0.117-0.297,0.117h-0.666C373.081,125.975,372.985,125.936,372.913,125.857z"/>
						<path fill="#005476" d="M382.938,121.951c-0.685-0.306-1.204-0.704-1.558-1.196s-0.543-1.002-0.566-1.53
							c0-0.108,0.035-0.195,0.107-0.261c0.072-0.066,0.162-0.1,0.271-0.1h0.81c0.132,0,0.24,0.027,0.324,0.081
							s0.149,0.159,0.198,0.315c0.155,0.611,0.494,1.044,1.017,1.296s1.137,0.378,1.845,0.378c0.864,0,1.551-0.207,2.062-0.621
							c0.51-0.414,0.765-1.005,0.765-1.773c0-1.464-0.894-2.195-2.682-2.195h-1.692c-0.12,0-0.219-0.039-0.297-0.117
							s-0.117-0.177-0.117-0.297v-0.468c0-0.181,0.066-0.336,0.198-0.469l3.51-3.888h-5.328c-0.12,0-0.219-0.036-0.297-0.108
							c-0.078-0.071-0.117-0.168-0.117-0.287v-0.648c0-0.132,0.039-0.237,0.117-0.315c0.078-0.077,0.177-0.116,0.297-0.116h7.128
							c0.132,0,0.237,0.039,0.315,0.116c0.078,0.078,0.117,0.184,0.117,0.315v0.594c0,0.133-0.061,0.271-0.181,0.414l-3.51,3.942
							h0.288c1.224,0.036,2.193,0.354,2.907,0.954c0.714,0.6,1.07,1.476,1.07,2.628c0,0.792-0.194,1.473-0.585,2.043
							c-0.39,0.57-0.933,1.008-1.629,1.313c-0.695,0.307-1.481,0.459-2.357,0.459C384.432,122.41,383.622,122.258,382.938,121.951z"
							/>
						<path fill="#005476" d="M393.703,121.951c-0.685-0.306-1.204-0.704-1.558-1.196s-0.543-1.002-0.566-1.53
							c0-0.108,0.035-0.195,0.107-0.261c0.072-0.066,0.162-0.1,0.271-0.1h0.81c0.132,0,0.24,0.027,0.324,0.081
							s0.149,0.159,0.198,0.315c0.155,0.611,0.494,1.044,1.017,1.296s1.137,0.378,1.845,0.378c0.864,0,1.551-0.207,2.062-0.621
							c0.51-0.414,0.765-1.005,0.765-1.773c0-1.464-0.894-2.195-2.682-2.195h-1.692c-0.12,0-0.219-0.039-0.297-0.117
							s-0.117-0.177-0.117-0.297v-0.468c0-0.181,0.066-0.336,0.198-0.469l3.51-3.888h-5.328c-0.12,0-0.219-0.036-0.297-0.108
							c-0.078-0.071-0.117-0.168-0.117-0.287v-0.648c0-0.132,0.039-0.237,0.117-0.315c0.078-0.077,0.177-0.116,0.297-0.116h7.128
							c0.132,0,0.237,0.039,0.315,0.116c0.078,0.078,0.117,0.184,0.117,0.315v0.594c0,0.133-0.061,0.271-0.181,0.414l-3.51,3.942
							h0.288c1.224,0.036,2.193,0.354,2.907,0.954c0.714,0.6,1.07,1.476,1.07,2.628c0,0.792-0.194,1.473-0.585,2.043
							c-0.39,0.57-0.933,1.008-1.629,1.313c-0.695,0.307-1.481,0.459-2.357,0.459C395.196,122.41,394.387,122.258,393.703,121.951z"
							/>
						<path fill="#005476" d="M408.084,121.321c-0.72-0.726-1.098-1.743-1.134-3.051l-0.019-0.72l0.019-0.721
							c0.036-1.308,0.414-2.324,1.134-3.051c0.72-0.726,1.722-1.089,3.006-1.089c0.864,0,1.593,0.153,2.188,0.459
							c0.594,0.306,1.037,0.688,1.332,1.143c0.294,0.457,0.452,0.912,0.477,1.368c0.012,0.108-0.027,0.204-0.117,0.288
							s-0.188,0.126-0.297,0.126h-0.792c-0.12,0-0.21-0.026-0.27-0.081c-0.061-0.054-0.12-0.152-0.181-0.297
							c-0.216-0.588-0.513-1.005-0.891-1.251s-0.855-0.369-1.431-0.369c-0.757,0-1.356,0.234-1.801,0.702
							c-0.443,0.468-0.684,1.183-0.72,2.143l-0.018,0.63l0.018,0.63c0.036,0.96,0.276,1.674,0.72,2.142
							c0.444,0.468,1.044,0.702,1.801,0.702c0.588,0,1.067-0.123,1.439-0.369s0.666-0.663,0.882-1.251
							c0.061-0.144,0.12-0.243,0.181-0.297c0.06-0.054,0.149-0.081,0.27-0.081h0.792c0.108,0,0.207,0.042,0.297,0.126
							s0.129,0.18,0.117,0.288c-0.024,0.444-0.183,0.895-0.477,1.35c-0.295,0.457-0.738,0.841-1.332,1.152
							c-0.595,0.312-1.323,0.468-2.188,0.468C409.806,122.41,408.804,122.048,408.084,121.321z"/>
						<path fill="#005476" d="M417.362,122.113c-0.078-0.078-0.117-0.177-0.117-0.297v-8.532c0-0.119,0.039-0.219,0.117-0.297
							s0.177-0.117,0.297-0.117h0.756c0.12,0,0.217,0.039,0.288,0.117c0.072,0.078,0.108,0.178,0.108,0.297v0.612
							c0.647-0.804,1.523-1.206,2.628-1.206c1.32,0,2.256,0.552,2.808,1.656c0.288-0.504,0.699-0.906,1.233-1.206
							s1.131-0.45,1.791-0.45c0.983,0,1.788,0.336,2.412,1.008c0.624,0.673,0.936,1.645,0.936,2.916v5.202
							c0,0.12-0.039,0.219-0.117,0.297s-0.177,0.117-0.297,0.117h-0.773c-0.12,0-0.22-0.039-0.297-0.117
							c-0.078-0.078-0.117-0.177-0.117-0.297v-5.04c0-0.96-0.198-1.646-0.594-2.061c-0.396-0.414-0.918-0.621-1.566-0.621
							c-0.576,0-1.071,0.213-1.485,0.639s-0.621,1.107-0.621,2.043v5.04c0,0.12-0.039,0.219-0.116,0.297
							c-0.078,0.078-0.178,0.117-0.297,0.117h-0.792c-0.12,0-0.22-0.039-0.298-0.117s-0.116-0.177-0.116-0.297v-5.04
							c0-0.947-0.207-1.632-0.621-2.052s-0.928-0.63-1.539-0.63c-0.576,0-1.071,0.21-1.485,0.63s-0.621,1.098-0.621,2.034v5.058
							c0,0.12-0.039,0.219-0.117,0.297s-0.177,0.117-0.297,0.117h-0.792C417.539,122.23,417.44,122.191,417.362,122.113z"/>
					</g>
				</g>
			</g>
		</g>
	</g>
</g>
<g id="N-TEXT">
</g>
<g id="AG-DIAGRAM">
</g>
<g id="AG-DETAILS-DIAGRAM">
</g>
<g id="AG-OBJECTS">
</g>
<g id="AG-PEOPLE">
</g>
<g id="AG-DETAILS">
	<g id="POLYLINE_1370_">
		
			<path fill="none" stroke="#005476" stroke-width="2.25" stroke-linecap="round" stroke-linejoin="round" stroke-miterlimit="10" d="
			M71.518,375.641c-4.965-0.043-8.636-4.118-8.636-8.97c0-1.961,0-3.922,0-5.883c0-3.931,0-7.862,0-11.793c0-5.645,0-11.29,0-16.935
			c0-6.974,0-13.948,0-20.921c0-8.063,0-16.126,0-24.189c0-8.822,0-17.644,0-26.466c0-9.241,0-18.482,0-27.723
			c0-9.419,0-18.838,0-28.257c0-9.258,0-18.516,0-27.774c0-8.759,0-17.519,0-26.278c0-8.044,0-16.087,0-24.131
			c0-6.908,0-13.817,0-20.725c0-5.546,0-11.092,0-16.638c0-3.85,0-7.699,0-11.549c0-1.843-0.004-3.687,0-5.53
			c0.011-4.805,3.559-8.88,8.494-8.997c0.839-0.02,1.68,0,2.519,0c2.265,0,4.529,0,6.794,0c3.59,0,7.179,0,10.769,0
			c4.734,0,9.467,0,14.201,0c5.791,0,11.581,0,17.372,0c6.702,0,13.404,0,20.106,0c7.454,0,14.909,0,22.363,0
			c8.129,0,16.258,0,24.387,0c8.647,0,17.294,0,25.941,0c9.002,0,18.004,0,27.005,0c9.323,0,18.645,0,27.968,0
			c9.382,0,18.764,0,28.145,0c9.409,0,18.818,0,28.227,0c9.272,0,18.544,0,27.816,0c8.973,0,17.946,0,26.918,0
			c8.606,0,17.213,0,25.819,0c8.077,0,16.153,0,24.23,0c7.391,0,14.781,0,22.172,0c6.626,0,13.253,0,19.879,0
			c5.703,0,11.407,0,17.11,0c4.649,0,9.299,0,13.948,0c3.464,0,6.929,0,10.393,0c2.143,0,4.286,0,6.429,0
			c0.981,0,1.99-0.055,2.968,0.042c4.688,0.464,7.789,4.487,7.79,9.034c0,2.033,0,4.066,0,6.099c0,4.013,0,8.025,0,12.038
			c0,5.682,0,11.363,0,17.045c0,7.044,0,14.087,0,21.131c0,8.098,0,16.196,0,24.294c0,8.813,0,17.627,0,26.44
			c0,9.285,0,18.569,0,27.854c0,9.419,0,18.837,0,28.256c0,9.213,0,18.427,0,27.64c0,8.767,0,17.534,0,26.302
			c0,7.981,0,15.961,0,23.942c0,6.887,0,13.774,0,20.66c0,5.486,0,10.972,0,16.457c0,3.768,0,7.535,0,11.303
			c0,1.77,0.006,3.539,0,5.309c-0.015,4.783-3.626,8.804-8.507,8.914c-0.891,0.02-1.785,0-2.676,0c-2.323,0-4.647,0-6.97,0
			c-3.623,0-7.246,0-10.869,0c-4.772,0-9.545,0-14.317,0c-5.847,0-11.695,0-17.542,0c-6.709,0-13.419,0-20.128,0
			c-7.507,0-15.014,0-22.521,0c-8.151,0-16.303,0-24.454,0c-8.633,0-17.267,0-25.9,0c-9.046,0-18.091,0-27.137,0
			c-9.297,0-18.594,0-27.891,0c-9.384,0-18.768,0-28.151,0c-9.44,0-18.879,0-28.319,0c-9.232,0-18.464,0-27.695,0
			c-8.992,0-17.984,0-26.976,0c-8.588,0-17.177,0-25.765,0c-8.026,0-16.052,0-24.078,0c-7.39,0-14.779,0-22.169,0
			c-6.593,0-13.186,0-19.779,0c-5.647,0-11.293,0-16.94,0c-4.624,0-9.248,0-13.872,0c-3.406,0-6.812,0-10.217,0
			c-2.099,0-4.198,0-6.297,0C72.822,375.641,72.17,375.641,71.518,375.641z"/>
	</g>
	<g id="POLYLINE_1369_">
		
			<path fill="none" stroke="#005476" stroke-width="2.25" stroke-linecap="round" stroke-linejoin="round" stroke-miterlimit="10" d="
			M401.743,182.824c-7.521,0.065-14.875,2.332-21.03,6.683c-6.11,4.319-10.801,10.511-13.305,17.562
			c-2.5,7.04-2.769,14.795-0.758,21.991c2.002,7.166,6.22,13.638,11.971,18.359c5.75,4.722,12.919,7.601,20.338,8.17
			c7.481,0.574,15.067-1.216,21.504-5.07c6.437-3.855,11.596-9.696,14.622-16.562c3-6.808,3.847-14.487,2.4-21.785
			c-1.448-7.299-5.161-14.072-10.533-19.22c-5.394-5.17-12.357-8.594-19.744-9.714C405.396,182.963,403.574,182.84,401.743,182.824z
			"/>
	</g>
	<g id="POLYLINE_1368_">
		
			<path fill="none" stroke="#005476" stroke-width="2.25" stroke-linecap="round" stroke-linejoin="round" stroke-miterlimit="10" d="
			M619.253,464.009c1.473,0,2.946,0,4.419,0c4.008,0,8.016,0,12.025,0c5.927,0,11.855,0,17.782,0c7.199,0,14.398,0,21.597,0
			c7.916,0,15.833,0,23.749,0c7.99,0,15.98,0,23.971,0c7.419,0,14.839,0,22.258,0c6.296,0,12.592,0,18.888,0
			c4.524,0,9.049,0,13.573,0c2.137,0,4.273,0,6.41,0c0.946,0,1.891,0,2.837,0c3.447,0,6.894,0,10.341,0c5.516,0,11.033,0,16.549,0
			c6.939,0,13.878,0,20.816,0c7.805,0,15.61,0,23.415,0c8.029,0,16.058,0,24.087,0c7.637,0,15.274,0,22.911,0
			c6.629,0,13.258,0,19.887,0c4.989,0,9.977,0,14.966,0c2.776,0,5.551,0,8.327,0c0.357,0,0.713,0,1.07,0"/>
	</g>
	<g id="POLYLINE_1367_">
		
			<line fill="none" stroke="#005476" stroke-width="2.25" stroke-linecap="round" stroke-linejoin="round" stroke-miterlimit="10" x1="541.204" y1="464.009" x2="56.112" y2="464.009"/>
	</g>
</g>
<g id="AG-FIXTURE">
	<g id="POLYLINE_1353_">
		
			<path fill="none" stroke="#005476" stroke-width="2.75" stroke-linecap="round" stroke-linejoin="round" stroke-miterlimit="10" d="
			M283.99,318.323c0.066,7.593,1.978,15.059,5.754,21.665c3.746,6.554,9.196,12.088,15.695,15.928
			c6.499,3.84,13.974,5.951,21.522,6.07c3.516,0.056,7.036,0.006,10.552,0.006c8.602,0,17.205,0,25.807,0
			c11.409,0,22.819,0,34.228,0c11.733,0,23.466,0,35.2,0c9.493,0,18.987,0,28.48,0c4.715,0,9.429,0.002,14.144,0
			c6.21-0.003,12.338-1.19,18.034-3.694c6.91-3.038,12.984-7.882,17.483-13.942s7.38-13.276,8.289-20.769
			c0.406-3.343,0.318-6.712,0.318-10.072c0-6.221,0-12.441,0-18.662c0-9.516,0-19.032,0-28.548c0-11.425,0-22.851,0-34.276
			c0-11.926,0-23.852,0-35.778c0-11.018,0-22.037,0-33.055c0-8.702,0-17.404,0-26.106c0-4.985,0-9.97,0-14.954
			c0-4.624-0.35-9.176-1.603-13.655c-2.033-7.27-5.949-13.974-11.317-19.286c-5.365-5.31-12.086-9.197-19.38-11.156
			c-4.613-1.239-9.265-1.507-14.006-1.507c-6.345,0-12.689,0-19.034,0c-10.367,0-20.733,0-31.1,0c-11.94,0-23.88,0-35.821,0
			c-10.857,0-21.713,0-32.57,0c-7.323,0-14.647,0-21.97,0c-4.074,0-8.127-0.081-12.166,0.587
			c-7.449,1.233-14.529,4.419-20.391,9.177c-5.863,4.759-10.436,11.031-13.175,18.068c-2.06,5.293-2.974,10.868-2.974,16.534
			c0,4.094,0,8.188,0,12.282c0,8.088,0,16.176,0,24.265c0,10.678,0,21.357,0,32.035c0,11.86,0,23.72,0,35.58
			c0,11.633,0,23.266,0,34.899c0,9.998,0,19.995,0,29.993c0,6.981,0,13.962,0,20.943C283.99,313.369,283.99,315.846,283.99,318.323z
			"/>
	</g>
	<g id="POLYLINE_211_">
		
			<line fill="none" stroke="#005476" stroke-width="2.75" stroke-linecap="round" stroke-linejoin="round" stroke-miterlimit="10" x1="264.07" y1="318.323" x2="82.801" y2="318.323"/>
	</g>
	<g id="POLYLINE_209_">
		
			<line fill="none" stroke="#005476" stroke-width="2.75" stroke-linecap="round" stroke-linejoin="round" stroke-miterlimit="10" x1="264.07" y1="268.792" x2="82.801" y2="268.792"/>
	</g>
	<g id="POLYLINE_198_">
		
			<line fill="none" stroke="#005476" stroke-width="2.75" stroke-linecap="round" stroke-linejoin="round" stroke-miterlimit="10" x1="264.07" y1="169.73" x2="82.801" y2="169.73"/>
	</g>
	<g id="POLYLINE_197_">
		
			<line fill="none" stroke="#005476" stroke-width="2.75" stroke-linecap="round" stroke-linejoin="round" stroke-miterlimit="10" x1="264.07" y1="120.199" x2="82.801" y2="120.199"/>
	</g>
	<g id="POLYLINE_196_">
		
			<line fill="none" stroke="#005476" stroke-width="2.75" stroke-linecap="round" stroke-linejoin="round" stroke-miterlimit="10" x1="264.07" y1="219.261" x2="82.801" y2="219.261"/>
	</g>
	<g id="POLYLINE_195_">
		
			<path fill="none" stroke="#005476" stroke-width="2.75" stroke-linecap="round" stroke-linejoin="round" stroke-miterlimit="10" d="
			M61.211,386.97c-5.591-0.048-9.658-4.641-9.658-10.082c0-2.107,0-4.215,0-6.322c0-4.165,0-8.329,0-12.494
			c0-5.908,0-11.817,0-17.725c0-7.338,0-14.677,0-22.015c0-8.455,0-16.909,0-25.364c0-9.257,0-18.515,0-27.772
			c0-9.713,0-19.426,0-29.139c0-9.921,0-19.842,0-29.764c0-9.784,0-19.567,0-29.351c0-9.302,0-18.605,0-27.907
			c0-8.571,0-17.141,0-25.712c0-7.493,0-14.986,0-22.479c0-6.102,0-12.203,0-18.305c0-4.397,0-8.793,0-13.19
			c0-2.378,0-4.756,0-7.134c0-0.334-0.005-0.668,0-1.001c0.057-4.06,2.585-7.755,6.45-9.113c1.645-0.578,3.23-0.548,4.919-0.548
			c2.158,0,4.315,0,6.473,0c3.548,0,7.097,0,10.645,0c4.824,0,9.647,0,14.471,0c5.949,0,11.898,0,17.847,0c6.91,0,13.82,0,20.729,0
			c7.777,0,15.555,0,23.332,0c8.483,0,16.967,0,25.45,0c9.049,0,18.098,0,27.147,0c9.475,0,18.95,0,28.425,0
			c9.761,0,19.522,0,29.283,0c9.907,0,19.813,0,29.72,0c9.913,0,19.825,0,29.738,0c9.778,0,19.557,0,29.335,0
			c9.473,0,18.946,0,28.418,0c9.091,0,18.183,0,27.274,0c8.538,0,17.075,0,25.613,0c7.819,0,15.638,0,23.457,0
			c7.013,0,14.026,0,21.039,0c6.04,0,12.079,0,18.119,0c4.926,0,9.853,0,14.779,0c3.673,0,7.346,0,11.019,0c2.28,0,4.559,0,6.839,0
			c1.071,0,2.174-0.06,3.241,0.052c5.26,0.55,8.659,5.072,8.66,10.154c0,2.196,0,4.392,0,6.589c0,4.224,0,8.447,0,12.671
			c0,5.967,0,11.934,0,17.9c0,7.385,0,14.77,0,22.156c0,8.46,0,16.92,0,25.38c0,9.279,0,18.558,0,27.836c0,9.757,0,19.514,0,29.271
			c0,9.922,0,19.843,0,29.765c0,9.773,0,19.545,0,29.318c0,9.31,0,18.62,0,27.929c0,8.533,0,17.067,0,25.6
			c0,7.443,0,14.886,0,22.329c0,6.039,0,12.078,0,18.117c0,4.31,0,8.62,0,12.931c0,2.297,0,4.595,0,6.892
			c0,0.4,0.009,0.802-0.006,1.202c-0.156,4.25-3.163,7.991-7.292,9.032c-1.396,0.352-2.794,0.293-4.215,0.293
			c-2.207,0-4.414,0-6.621,0c-3.607,0-7.215,0-10.822,0c-4.868,0-9.735,0-14.603,0c-5.988,0-11.976,0-17.964,0
			c-6.968,0-13.936,0-20.905,0c-7.809,0-15.617,0-23.426,0c-8.509,0-17.018,0-25.526,0c-9.069,0-18.138,0-27.207,0
			c-9.457,0-18.914,0-28.371,0c-9.769,0-19.537,0-29.306,0c-9.909,0-19.819,0-29.728,0c-9.877,0-19.754,0-29.631,0
			c-9.771,0-19.543,0-29.314,0c-9.492,0-18.985,0-28.477,0c-9.074,0-18.147,0-27.221,0c-8.515,0-17.029,0-25.544,0
			c-7.816,0-15.631,0-23.447,0c-6.977,0-13.953,0-20.93,0c-5.998,0-11.995,0-17.993,0c-4.879,0-9.757,0-14.636,0
			c-3.61,0-7.219,0-10.829,0c-2.225,0-4.451,0-6.676,0C62.595,386.97,61.903,386.97,61.211,386.97z"/>
	</g>
	<g id="POLYLINE_102_">
		
			<path fill="none" stroke="#005476" stroke-width="2.75" stroke-linecap="round" stroke-linejoin="round" stroke-miterlimit="10" d="
			M519.497,471.922c-0.232,4.203-0.464,8.407-0.696,12.61c-0.518,9.384-1.036,18.768-1.554,28.152
			c-0.537,9.725-1.074,19.451-1.611,29.176c-0.288,5.223-0.571,10.446-0.865,15.668c-0.382,6.797-3.845,13.065-9.655,16.758
			c-2.518,1.6-5.375,2.649-8.33,3.057c-1.713,0.237-3.458,0.294-5.181,0.42c-9.12,0.669-18.24,1.337-27.36,2.006
			c-6.948,0.509-13.896,1.027-20.845,1.528c-2.914,0.21-5.008,2.404-7.235,4.095c-1.198,0.91-2.373,2.014-3.871,2.384
			c-0.824,0.204-1.675,0.159-2.516,0.159c-8.591,0-17.183,0-25.774,0c-6.159,0-12.318,0-18.476,0c-4.021,0-8.042,0-12.063,0
			c-0.901,0-1.779,0.016-2.651-0.268c-1.481-0.482-2.736-1.701-3.952-2.624c-2.166-1.645-4.055-3.553-6.875-3.753
			c-2.516-0.178-5.031-0.369-7.547-0.553c-9.672-0.709-19.343-1.418-29.015-2.127c-3.96-0.29-7.92-0.581-11.88-0.871
			c-1.7-0.125-3.425-0.179-5.112-0.434c-7.554-1.142-14.049-6.532-16.569-13.754c-1.294-3.707-1.24-7.696-1.454-11.572
			c-0.451-8.167-0.902-16.334-1.353-24.5c-0.56-10.152-1.121-20.305-1.681-30.457c-0.403-7.298-0.806-14.596-1.209-21.895
			c-0.059-1.068-0.118-2.137-0.177-3.205"/>
	</g>
	<g id="POLYLINE_100_">
		
			<path fill="none" stroke="#005476" stroke-width="2.75" stroke-linecap="round" stroke-linejoin="round" stroke-miterlimit="10" d="
			M56.112,464.009c1.461,1.46,2.921,2.92,4.382,4.38c0.928,0.927,1.855,1.854,2.783,2.781c0.189,0.189,0.504,0.653,0.757,0.752
			c0.261,0.102,0.769,0,1.042,0c2.399,0,4.798,0,7.197,0c4.463,0,8.927,0,13.39,0c6.278,0,12.556,0,18.834,0
			c7.842,0,15.685,0,23.527,0c9.184,0,18.368,0,27.551,0c10.253,0,20.507,0,30.76,0c11.04,0,22.079,0,33.119,0
			c11.603,0,23.205,0,34.808,0c11.916,0,23.832,0,35.748,0c11.979,0,23.958,0,35.937,0c11.857,0,23.714,0,35.57,0
			c11.352,0,22.705,0,34.057,0c10.664,0,21.329,0,31.993,0c9.726,0,19.452,0,29.178,0c8.538,0,17.076,0,25.614,0
			c7.117,0,14.235,0,21.352,0c5.419,0,10.839,0,16.258,0c3.462,0,6.925,0,10.387,0c0.926,0,1.852,0,2.777,0
			c0.266,0,0.79,0.105,1.042,0c0.228-0.096,0.496-0.552,0.653-0.73c0.779-0.878,1.558-1.757,2.338-2.635
			c1.345-1.516,2.69-3.032,4.035-4.548"/>
	</g>
	<g id="POLYLINE_99_">
		
			<path fill="none" stroke="#005476" stroke-width="2.75" stroke-linecap="round" stroke-linejoin="round" stroke-miterlimit="10" d="
			M949.13,464.009c-2.038,2.297-4.076,4.594-6.115,6.891c-0.645,0.727-0.672,1.022-1.529,1.022c-2.634,0-5.268,0-7.902,0
			c-5.098,0-10.195,0-15.293,0c-6.846,0-13.692,0-20.539,0c-7.88,0-15.759,0-23.639,0c-8.198,0-16.396,0-24.595,0
			c-7.802,0-15.603,0-23.405,0c-6.69,0-13.38,0-20.07,0c-4.863,0-9.726,0-14.59,0c-2.321,0-4.643,0-6.964,0
			c-1.031,0-2.062,0-3.093,0c-3.718,0-7.435,0-11.153,0c-5.892,0-11.784,0-17.675,0c-7.351,0-14.702,0-22.052,0
			c-8.128,0-16.256,0-24.384,0c-8.09,0-16.181,0-24.271,0c-7.465,0-14.931,0-22.396,0c-6.009,0-12.018,0-18.026,0
			c-3.931,0-7.862,0-11.793,0c-0.935,0-1.87,0-2.804,0c-0.883,0-1.031-0.523-1.665-1.236c-1.975-2.225-3.949-4.451-5.924-6.677"/>
	</g>
	<g id="POLYLINE_98_">
		
			<path fill="none" stroke="#005476" stroke-width="2.75" stroke-linecap="round" stroke-linejoin="round" stroke-miterlimit="10" d="
			M926.922,471.922c-0.284,5.14-0.568,10.28-0.851,15.42c-0.602,10.904-1.204,21.808-1.806,32.712
			c-0.545,9.874-1.09,19.749-1.635,29.623c-0.248,4.5-0.061,9.393-1.525,13.71c-2.582,7.613-9.787,13.497-17.881,14.069
			c-7.822,0.552-15.697,0.681-23.531,1.021c-8.325,0.361-16.651,0.693-24.975,1.083c-7.324,0.344-14.647,0.768-21.964,1.239
			c-1.902,0.122-3.802,0.266-5.702,0.408c-1.655,0.124-3.131,0.205-4.53,1.218c-1.794,1.3-3.534,2.683-5.299,4.022
			c-1.161,0.881-2.322,1.456-3.806,1.488c-8.803,0.191-17.629,0-26.434,0c-7.248,0-14.496,0-21.743,0c-3.427,0-6.867,0.088-10.293,0
			c-1.582-0.041-2.763-0.711-3.988-1.642c-1.752-1.33-3.462-2.753-5.275-3.999c-1.948-1.339-4.677-1.054-6.928-1.149
			c-4.996-0.211-9.991-0.422-14.987-0.633c-7.559-0.319-15.125-0.573-22.681-0.961c-7.616-0.391-15.233-0.791-22.844-1.271
			c-4.363-0.275-8.741-0.464-13.098-0.827c-3.21-0.267-6.366-1.347-9.1-3.041c-6.251-3.872-9.497-10.357-9.892-17.503
			c-0.389-7.038-0.777-14.075-1.166-21.113c-0.62-11.237-1.241-22.474-1.861-33.71c-0.482-8.728-0.964-17.456-1.446-26.185
			c-0.073-1.327-0.146-2.653-0.22-3.98"/>
	</g>
	<g id="POLYLINE_97_">
		
			<path fill="none" stroke="#005476" stroke-width="2.75" stroke-linecap="round" stroke-linejoin="round" stroke-miterlimit="10" d="
			M949.13,464.009c0.776,0,1.604,0.088,2.374,0c0.267-0.03,0.291,0.049,0.396-0.1c0.109-0.153,0-0.833,0-1.016
			c0-0.973,0-1.946,0-2.918c0-0.116,0.051-0.432-0.026-0.497c-0.209-0.179-1.366,0-1.625,0c-3.293,0-6.586,0-9.879,0
			c-5.679,0-11.358,0-17.037,0c-7.312,0-14.623,0-21.935,0c-8.256,0-16.511,0-24.767,0c-8.493,0-16.986,0-25.479,0
			c-8.053,0-16.107,0-24.16,0c-6.842,0-13.684,0-20.526,0c-4.971,0-9.943,0-14.914,0c-2.353,0-4.706,0-7.06,0
			c-1.046,0-2.092,0-3.138,0c-3.799,0-7.598,0-11.397,0c-6.017,0-12.034,0-18.051,0c-7.569,0-15.139,0-22.708,0
			c-8.354,0-16.708,0-25.062,0c-8.459,0-16.918,0-25.377,0c-7.886,0-15.772,0-23.657,0c-6.542,0-13.085,0-19.627,0
			c-4.537,0-9.075,0-13.612,0c-1.279,0-2.558,0-3.837,0c-0.233,0-1.342-0.166-1.527,0c-0.085,0.076-0.016,0.591-0.016,0.71
			c0,0.959,0,1.918,0,2.877c0,0.658-0.214,0.876,0.396,0.945c0.771,0.088,1.597,0,2.374,0"/>
	</g>
	<g id="POLYLINE_96_">
		
			<path fill="none" stroke="#005476" stroke-width="2.75" stroke-linecap="round" stroke-linejoin="round" stroke-miterlimit="10" d="
			M56.112,464.009c-1.164,0-2.328,0-3.492,0c-0.149,0-0.979,0.102-1.068,0c-0.144-0.165,0-1.1,0-1.295
			c0-0.506-0.293-2.986,0.067-3.237c0.228-0.158,1.142,0,1.408,0c2.66,0,5.32,0,7.981,0c4.777,0,9.554,0,14.331,0
			c6.59,0,13.18,0,19.769,0c8.172,0,16.343,0,24.515,0c9.556,0,19.112,0,28.668,0c10.586,0,21.171,0,31.757,0
			c11.443,0,22.886,0,34.33,0c12.02,0,24.04,0,36.061,0c12.31,0,24.621,0,36.931,0c12.447,0,24.894,0,37.341,0
			c12.198,0,24.396,0,36.594,0c11.764,0,23.528,0,35.292,0c11.136,0,22.272,0,33.407,0c10.136,0,20.272,0,30.408,0
			c8.969,0,17.937,0,26.906,0c7.519,0,15.038,0,22.557,0c5.803,0,11.606,0,17.409,0c3.873,0,7.745,0,11.618,0
			c1.115,0,2.229,0,3.344,0c0.349,0,1.288-0.177,1.601,0c0.284,0.16,0.132,0.515,0.132,0.945c0,0.702,0,1.404,0,2.105
			c0,0.22,0.158,1.251,0,1.436c-0.277,0.325-2.279,0.045-2.77,0.045"/>
	</g>
</g>
<g id="AG-OUTLINE">
	<g id="POLYLINE_95_">
		
			<path fill="none" stroke="#005476" stroke-width="3.5" stroke-linecap="round" stroke-linejoin="round" stroke-miterlimit="10" d="
			M61.211,386.97c-5.402-0.03-9.621-4.491-9.66-9.82c-0.012-1.695,0-3.39,0-5.084c0-3.855,0-7.71,0-11.564c0-5.69,0-11.379,0-17.069
			c0-7.175,0-14.35,0-21.526c0-8.386,0-16.772,0-25.158c0-9.252,0-18.504,0-27.756c0-9.761,0-19.523,0-29.284
			c0-10.047,0-20.094,0-30.14c0-9.877,0-19.754,0-29.631c0-9.484,0-18.968,0-28.452c0-8.734,0-17.468,0-26.202
			c0-7.637,0-15.275,0-22.912c0-6.269,0-12.539,0-18.808c0-4.55,0-9.101,0-13.651c0-2.504,0-5.007,0-7.511
			c0-3.388,0.857-6.545,3.668-8.767c2.063-1.631,4.474-2.082,7.011-2.082c1.837,0,3.673,0,5.51,0c3.302,0,6.604,0,9.906,0
			c4.605,0,9.211,0,13.816,0c5.817,0,11.633,0,17.45,0c6.807,0,13.615,0,20.422,0c7.717,0,15.434,0,23.151,0
			c8.461,0,16.922,0,25.383,0c9.03,0,18.06,0,27.089,0c9.515,0,19.03,0,28.545,0c9.827,0,19.653,0,29.48,0
			c9.961,0,19.921,0,29.882,0c10.05,0,20.1,0,30.151,0c9.863,0,19.726,0,29.589,0c9.631,0,19.262,0,28.893,0
			c9.222,0,18.443,0,27.665,0c8.64,0,17.28,0,25.921,0c7.972,0,15.945,0,23.917,0c7.13,0,14.261,0,21.391,0
			c6.126,0,12.251,0,18.377,0c5.032,0,10.065,0,15.097,0c3.729,0,7.457,0,11.186,0c2.325,0,4.649,0,6.974,0
			c0.975,0,1.964-0.044,2.938,0.022c5.174,0.349,8.989,4.766,9.011,9.854c0.008,1.791,0,3.582,0,5.372c0,3.918,0,7.836,0,11.754
			c0,5.751,0,11.501,0,17.252c0,7.25,0,14.501,0,21.751c0,8.397,0,16.794,0,25.192c0,9.278,0,18.555,0,27.833
			c0,9.808,0,19.616,0,29.425c0,9.982,0,19.965,0,29.947c0,9.933,0,19.866,0,29.798c0,9.43,0,18.86,0,28.289
			c0,8.7,0,17.401,0,26.101c0,7.615,0,15.231,0,22.846c0,6.189,0,12.378,0,18.567c0,4.481,0,8.963,0,13.444c0,2.427,0,4.855,0,7.282
			c0,3.612-1.135,6.958-4.309,9.072c-1.991,1.326-4.194,1.617-6.5,1.617c-1.889,0-3.778,0-5.667,0c-3.353,0-6.706,0-10.058,0
			c-4.668,0-9.337,0-14.005,0c-5.818,0-11.637,0-17.455,0c-6.888,0-13.776,0-20.663,0c-7.722,0-15.444,0-23.167,0
			c-8.485,0-16.971,0-25.456,0c-9.08,0-18.16,0-27.24,0c-9.498,0-18.996,0-28.494,0c-9.835,0-19.67,0-29.506,0
			c-9.997,0-19.995,0-29.992,0c-9.982,0-19.964,0-29.946,0c-9.922,0-19.843,0-29.765,0c-9.586,0-19.172,0-28.759,0
			c-9.204,0-18.408,0-27.612,0c-8.645,0-17.29,0-25.935,0c-7.917,0-15.833,0-23.75,0c-7.097,0-14.194,0-21.291,0
			c-6.105,0-12.211,0-18.316,0c-4.97,0-9.939,0-14.909,0c-3.69,0-7.379,0-11.069,0c-2.26,0-4.52,0-6.78,0
			C62.625,386.97,61.918,386.97,61.211,386.97z"/>
	</g>
</g>
</svg>
