<svg width="116" height="131" fill="none" xmlns="http://www.w3.org/2000/svg">
<path fill-rule="evenodd" clip-rule="evenodd" 
    d="M64.824 96a3.712 3.712 0 01-3.215-1.838 3.66 3.66 0 011.357-5.024L109.5 62.494a3.724 3.724 0 015.065 1.345 3.66 3.66 0 01-1.356 5.023L66.675 95.507a3.72 3.72 0 01-1.851.493" 
    fill="#005476"/>
<path fill-rule="evenodd" clip-rule="evenodd" 
    d="M57.886 131c-.641 0-1.28-.165-1.854-.496L2.518 99.607a3.706 3.706 0 01-1.852-3.21V34.604c0-1.324.705-2.549 1.852-3.21L56.032.497a3.705 3.705 0 013.708 0l53.513 30.897a3.708 3.708 0 010 6.422L66.719 64.68a3.707 3.707 0 11-3.708-6.421l40.974-23.656L57.886 7.99 8.08 36.745v57.511l49.807 28.756 51.66-29.826a3.705 3.705 0 015.065 1.356 3.71 3.71 0 01-1.358 5.065L59.74 130.504a3.701 3.701 0 01-1.854.496z" 
    fill="#005476"/>
</svg>