<svg width="154" height="174" viewBox="0 0 154 174" fill="none" xmlns="http://www.w3.org/2000/svg">
<path d="M76.886 169.052C77.6927 169.052 78.497 168.845 79.2184 168.431L146.556 129.751C147.999 128.923 148.886 127.39 148.886 125.732V48.3736C148.886 46.7157 147.999 45.1822 146.556 44.3544L79.2184 5.67353C78.4958 5.25965 77.6915 5.05151 76.886 5.05151C76.0817 5.05151 75.2761 5.25965 74.5536 5.67353L7.21601 44.3544C5.77447 45.1822 4.88599 46.7157 4.88599 48.3736V125.732C4.88599 127.39 5.77447 128.923 7.21601 129.751L74.5536 168.431C75.2749 168.845 76.0793 169.052 76.886 169.052" stroke="white" stroke-width="9"/>
</svg>
